STARTFONT 2.3
FONT -FontForge-Fredoka One-Book-R-Normal--36-360-72-72-P-208-ISO10646-1
SIZE 36 72 72  2
FONTBOUNDINGBOX 48 44 -5 -9
COMMENT "Generated by fontforge, http://fontforge.sourceforge.net"
COMMENT "Copyright (c) 2011 Milena B Brandao (milenabbrandao@gmail.com), with Reserved Font Name "Fredoka""
STARTPROPERTIES 40
FOUNDRY "FontForge"
FAMILY_NAME "Fredoka One"
WEIGHT_NAME "Book"
SLANT "R"
SETWIDTH_NAME "Normal"
ADD_STYLE_NAME ""
PIXEL_SIZE 36
POINT_SIZE 360
RESOLUTION_X 72
RESOLUTION_Y 72
SPACING "P"
AVERAGE_WIDTH 208
CHARSET_REGISTRY "ISO10646"
CHARSET_ENCODING "1"
FONTNAME_REGISTRY ""
CHARSET_COLLECTIONS "ISO10646-1"
BITS_PER_PIXEL 2
FONT_NAME "FredokaOne-Regular"
FACE_NAME "Fredoka One"
COPYRIGHT "Copyright (c) 2011 Milena B Brandao (milenabbrandao@gmail.com), with Reserved Font Name "Fredoka""
FONT_VERSION "1.001"
FONT_ASCENT 29
FONT_DESCENT 7
UNDERLINE_POSITION -4
UNDERLINE_THICKNESS 2
X_HEIGHT 19
CAP_HEIGHT 26
RAW_ASCENT 800
RAW_DESCENT 200
NORM_SPACE 9
RELATIVE_WEIGHT 40
RELATIVE_SETWIDTH 50
SUPERSCRIPT_X 0
SUPERSCRIPT_Y 17
SUPERSCRIPT_SIZE 23
SUBSCRIPT_X 0
SUBSCRIPT_Y 5
SUBSCRIPT_SIZE 23
AVG_LOWERCASE_WIDTH 206
AVG_UPPERCASE_WIDTH 248
ENDPROPERTIES
CHARS 235
STARTCHAR space
ENCODING 32
SWIDTH 253 0
DWIDTH 9 0
BBX 1 1 0 0
BITMAP
00
ENDCHAR
STARTCHAR exclam
ENCODING 33
SWIDTH 267 0
DWIDTH 10 0
BBX 8 27 1 0
BITMAP
0650
3FF8
7FFC
7FFC
7FFC
7FFC
7FFC
7FFC
7FFC
7FFC
7FFC
7FFC
7FFC
7FFC
7FFC
7FFC
3FF8
0550
0000
0000
1A90
3FF8
7FFC
BFFD
BFFC
7FFC
2FF4
ENDCHAR
STARTCHAR quotedbl
ENCODING 34
SWIDTH 429 0
DWIDTH 15 0
BBX 14 14 1 13
BITMAP
15001500
BFC0BFC0
FFD0FFD0
FFE0FFE0
FFE0FFE0
FFE0FFE0
FFD0FFD0
BFD0FFD0
BFC0BFC0
7FC07FC0
7F807F80
3F403F40
1E001E00
04000400
ENDCHAR
STARTCHAR numbersign
ENCODING 35
SWIDTH 749 0
DWIDTH 27 0
BBX 27 27 0 0
BITMAP
00001500005000
0000BF8007FD00
0000FFC00BFE00
0001FFC00BFD00
0001FF800FFD00
0002FF800FFC00
0002FF401FFC00
0157FF956FFD50
07FFFFFFFFFFF4
0FFFFFFFFFFFF4
0FFFFFFFFFFFF4
0FFFFFFFFFFFE0
015FFE557FF540
000FFD007FE000
000FFC00BFE000
001FFC00BFD000
1ABFFEAAFFFA40
3FFFFFFFFFFFC0
7FFFFFFFFFFFC0
7FFFFFFFFFFF80
7FFFFFFFFFFE40
007FF002FF4000
007FE003FF4000
00BFE003FF0000
00BFD007FF0000
00FFC007FE0000
006E4002E80000
ENDCHAR
STARTCHAR dollar
ENCODING 36
SWIDTH 475 0
DWIDTH 17 0
BBX 16 31 1 -3
BITMAP
000B8000
001FE000
002FE000
002FE000
002FE000
02FFFE00
0BFFFFD0
2FFFFFF0
7FFFFFE0
BFF57FD0
BFD00A40
BFE00000
7FF90000
3FFFE800
2FFFFF80
0BFFFFF0
01BFFFF8
0006FFFC
04001FFC
2F400FFD
BFD01FFC
FFFABFFC
BFFFFFF4
3FFFFFE0
0BFFFF80
01BFF900
002FE000
002FE000
002FE000
001FE000
000B8000
ENDCHAR
STARTCHAR percent
ENCODING 37
SWIDTH 838 0
DWIDTH 30 0
BBX 28 29 1 -1
BITMAP
0000000001F400
0055400002F800
02FFE40007F400
0FFFFC000BE000
2FFFFE001FD000
3FFFFF402F8000
7F80BF407F4000
BF407F80FE0000
BF407F81FC0000
7F80BF43F80000
7FE6FF47F00000
3FFFFF0FE00000
1FFFFD2FC00000
07FFF83F400000
01BF90BF005400
000000FD0BFF90
000002FC2FFFF4
000007F47FFFFC
00000BF0FFFFFD
00001FD1FF42FE
00002F81FE01FE
00007F41FE01FE
0000BE01FE01FE
0001FD00FF97FE
0003F800BFFFFD
0007F0007FFFF8
000FE0001FFFF0
001FC00006FF80
000B4000000000
ENDCHAR
STARTCHAR ampersand
ENCODING 38
SWIDTH 748 0
DWIDTH 27 0
BBX 25 29 1 -1
BITMAP
0001AA90000000
001FFFFD000000
00BFFFFF400000
01FFFFFFC00000
03FFFFFFE00000
07FFD1FFE00000
07FF40BFF00000
07FF40FFF00000
07FF87FFE00000
03FFAFFFD00000
03FFFFFF800000
02FFFFFE000000
01FFFFF8000000
01FFFFD0000000
07FFFF00015000
1FFFFF400BFD00
3FFFFFD01FFD00
7FFFFFF42FFD00
BFFEFFFD7FFC00
FFF4FFFFFFF800
FFF47FFFFFF400
FFF41FFFFFE000
FFFD07FFFFFE00
BFFFFFFFFFFF80
7FFFFFFFFFFFC0
2FFFFFFFFFFFC0
0BFFFFFEBFFFC0
01BFFFE006FF40
00015400000000
ENDCHAR
STARTCHAR quotesingle
ENCODING 39
SWIDTH 208 0
DWIDTH 7 0
BBX 6 14 1 13
BITMAP
1500
BFC0
FFD0
FFE0
FFE0
FFE0
FFD0
BFD0
BFC0
7FC0
7F80
3F40
1E00
0400
ENDCHAR
STARTCHAR parenleft
ENCODING 40
SWIDTH 384 0
DWIDTH 14 0
BBX 13 36 1 -8
BITMAP
0001BE00
001FFF40
007FFF40
00FFFF40
02FFF900
07FF8000
0BFE0000
0FFD0000
1FFC0000
2FF80000
3FF40000
7FF00000
7FF00000
BFE00000
BFE00000
BFE00000
FFE00000
FFE00000
FFD00000
FFE00000
BFE00000
BFE00000
BFE00000
7FE00000
7FF00000
3FF00000
2FF40000
2FF80000
0FFC0000
0BFE0000
07FF4000
02FFE400
01FFFF00
007FFF40
001FFF40
0006FF00
ENDCHAR
STARTCHAR parenright
ENCODING 41
SWIDTH 384 0
DWIDTH 14 0
BBX 13 37 0 -9
BITMAP
2F900000
7FF80000
7FFF0000
7FFF8000
2BFFE000
00BFF000
003FF800
001FFC00
000FFD00
000BFE00
0007FE00
0007FF00
0003FF40
0003FF40
0003FF80
0002FF80
0002FF80
0002FF80
0002FF80
0002FF80
0002FF80
0002FF80
0003FF40
0003FF40
0003FF00
0007FF00
000BFE00
000FFD00
001FFC00
002FF800
007FF400
16FFE000
7FFFC000
7FFF4000
7FFD0000
3FE00000
04000000
ENDCHAR
STARTCHAR asterisk
ENCODING 42
SWIDTH 503 0
DWIDTH 18 0
BBX 18 17 0 10
BITMAP
0002A80000
000BFE0000
000BFF0000
000FFF0000
1F9FFF6F40
3FFFFFFFC0
7FFFFFFFD0
7FFFFFFFE0
7FFFFFFFD0
1BFFFFFE40
00FFFFF400
01FFFFF800
03FFFFFD00
0BFFFFFE00
07FF9FFD00
01FE0BF800
0068019000
ENDCHAR
STARTCHAR plus
ENCODING 43
SWIDTH 527 0
DWIDTH 19 0
BBX 17 18 1 1
BITMAP
0001500000
000FFC0000
001FFD0000
001FFD0000
001FFD0000
001FFD0000
6AAFFEAA00
FFFFFFFF80
FFFFFFFFC0
FFFFFFFFC0
FFFFFFFFC0
7FFFFFFF40
001FFD0000
001FFD0000
001FFD0000
001FFD0000
000FFC0000
0006A40000
ENDCHAR
STARTCHAR comma
ENCODING 44
SWIDTH 238 0
DWIDTH 9 0
BBX 7 13 1 -6
BITMAP
1A90
BFF4
FFF8
FFF8
FFF8
FFF4
6FF4
0BF0
0FE0
2FD0
FF40
FE00
A400
ENDCHAR
STARTCHAR hyphen
ENCODING 45
SWIDTH 433 0
DWIDTH 16 0
BBX 14 6 1 5
BITMAP
2AAAAA40
FFFFFFD0
FFFFFFE0
FFFFFFE0
FFFFFFE0
7FFFFF80
ENDCHAR
STARTCHAR period
ENCODING 46
SWIDTH 237 0
DWIDTH 9 0
BBX 7 7 1 0
BITMAP
1A90
BFF4
FFF8
FFF8
FFF8
FFF4
6FE0
ENDCHAR
STARTCHAR slash
ENCODING 47
SWIDTH 526 0
DWIDTH 19 0
BBX 19 30 0 -2
BITMAP
0000002F80
0000007FF0
000000FFF4
000001FFF0
000002FFE0
000007FFD0
00000BFF80
00001FFF40
00002FFF00
00007FFD00
0000BFFC00
0001FFF400
0002FFF000
0003FFD000
000BFFC000
000FFF4000
002FFF0000
003FFE0000
00BFFC0000
00FFF80000
01FFF00000
03FFE00000
07FFC00000
0FFF800000
1FFF400000
3FFE000000
7FFD000000
7FF8000000
3FF4000000
06E0000000
ENDCHAR
STARTCHAR zero
ENCODING 48
SWIDTH 608 0
DWIDTH 22 0
BBX 20 28 1 -1
BITMAP
0001AA4000
002FFFF800
01FFFFFF40
07FFFFFFC0
0FFFFFFFE0
1FFFFFFFF4
2FFFEBFFF8
7FFE00FFFC
7FFD007FFD
BFF8003FFE
FFF8002FFE
FFF4002FFF
FFF4001FFF
FFF4001FFF
FFF4001FFF
FFF4001FFF
FFF4002FFF
FFF8002FFE
BFFC003FFE
7FFD007FFD
3FFF41FFFC
2FFFFFFFF8
1FFFFFFFF4
0BFFFFFFE0
03FFFFFF80
00BFFFFE00
001FFFF400
0001554000
ENDCHAR
STARTCHAR one
ENCODING 49
SWIDTH 407 0
DWIDTH 15 0
BBX 14 27 0 0
BITMAP
00001500
0001FF80
0007FFC0
001FFFD0
007FFFD0
02FFFFD0
0BFFFFD0
2FFFFFD0
7FFFFFD0
7FFFFFD0
3FFFFFD0
1FF7FFD0
0143FFD0
0003FFD0
0003FFD0
0003FFD0
0003FFD0
0003FFD0
0003FFD0
0003FFD0
0003FFD0
0003FFD0
0003FFD0
0003FFD0
0003FFD0
0003FFC0
0001FF40
ENDCHAR
STARTCHAR two
ENCODING 50
SWIDTH 609 0
DWIDTH 22 0
BBX 21 27 1 0
BITMAP
0006AA400000
007FFFF40000
02FFFFFE0000
0BFFFFFF8000
1FFFFFFFE000
3FFFFFFFF400
7FFFABFFF800
BFFD00FFFC00
FFF8007FFD00
FFF4003FFD00
FFF4007FFD00
FFF000BFFD00
7FE001FFFC00
000007FFF800
00002FFFF000
0001FFFFE000
001BFFFF8000
00BFFFFE0000
02FFFFF40000
0FFFFF800000
3FFFFD555400
BFFFFFFFFE00
FFFFFFFFFF40
FFFFFFFFFF40
FFFFFFFFFF40
BFFFFFFFFF40
2FFFFFFFFE00
ENDCHAR
STARTCHAR three
ENCODING 51
SWIDTH 608 0
DWIDTH 22 0
BBX 20 28 1 -1
BITMAP
0006AA5000
007FFFF900
02FFFFFF80
0BFFFFFFE0
1FFFFFFFF4
2FFFFFFFF8
3FFF96FFFC
3FFE007FFD
1FFC003FFD
02E001BFFD
0001FFFFFC
0002FFFFF4
0003FFFFD0
0003FFFFD0
0002FFFFF4
0001FFFFFC
000015FFFE
6FD0002FFF
FFF0001FFF
FFF8002FFF
FFFD007FFE
BFFFEBFFFD
7FFFFFFFFC
2FFFFFFFF4
0BFFFFFFE0
02FFFFFF40
006FFFF800
0001554000
ENDCHAR
STARTCHAR four
ENCODING 52
SWIDTH 592 0
DWIDTH 21 0
BBX 20 27 0 0
BITMAP
0015000150
00FFD00FFD
01FFF01FFE
01FFF02FFF
02FFE02FFF
03FFE02FFF
07FFD02FFF
07FFC02FFF
0BFF802FFF
0FFF802FFF
1FFF402FFF
1FFF002FFF
2FFE002FFF
3FFFAAAFFF
7FFFFFFFFF
7FFFFFFFFF
7FFFFFFFFF
7FFFFFFFFF
3FFFFFFFFF
0555556FFF
0000002FFF
0000002FFF
0000002FFF
0000002FFF
0000001FFE
0000001FFE
0000000BF8
ENDCHAR
STARTCHAR five
ENCODING 53
SWIDTH 530 0
DWIDTH 19 0
BBX 18 28 0 -1
BITMAP
0055555500
02FFFFFFD0
07FFFFFFE0
0BFFFFFFE0
0BFFFFFFE0
0FFFFFFFD0
0FFFFFFF80
0FFF400000
1FFF000000
1FFF540000
2FFFFF9000
2FFFFFF800
2FFFFFFE00
3FFFFFFF80
3FFFFFFFD0
2FFFFFFFE0
07FD07FFF0
005001FFF0
000001FFF0
069001FFF0
1FF807FFF0
3FFFFFFFE0
7FFFFFFFD0
7FFFFFFF80
1FFFFFFE00
07FFFFF800
00BFFFD000
0005550000
ENDCHAR
STARTCHAR six
ENCODING 54
SWIDTH 560 0
DWIDTH 20 0
BBX 19 28 1 -1
BITMAP
0000005500
00006FFFC0
0006FFFFD0
001FFFFFE0
00BFFFFFD0
01FFFFFFD0
03FFFFFF80
0BFFF90000
1FFFD00000
2FFF400000
3FFE000000
7FFDAA4000
BFFFFFF400
FFFFFFFE00
FFFFFFFF80
FFFFFFFFD0
FFFFFFFFE0
FFFD02FFF0
FFF801FFF4
FFF400FFF4
BFF801FFF0
7FFE5BFFF0
3FFFFFFFD0
1FFFFFFFC0
0BFFFFFF40
02FFFFFD00
006FFFD000
0001550000
ENDCHAR
STARTCHAR seven
ENCODING 55
SWIDTH 561 0
DWIDTH 20 0
BBX 20 27 0 0
BITMAP
0555555550
3FFFFFFFFC
7FFFFFFFFE
7FFFFFFFFE
7FFFFFFFFE
7FFFFFFFFD
2FFFFFFFFC
000001FFF8
000002FFF4
000007FFE0
00000FFFD0
00002FFF80
00007FFF00
0000FFFD00
0002FFF800
0007FFF400
000BFFE000
001FFFC000
002FFF4000
003FFF0000
007FFE0000
007FFD0000
00BFFC0000
00BFF80000
00BFF80000
00BFF80000
002FE00000
ENDCHAR
STARTCHAR eight
ENCODING 56
SWIDTH 582 0
DWIDTH 21 0
BBX 19 28 1 -1
BITMAP
0006FE4000
007FFFF400
02FFFFFE00
0BFFFFFF80
1FFFFFFFD0
2FFFFFFFE0
3FFF57FFF0
7FFD01FFF4
7FFD01FFF4
3FFE02FFF0
2FFFFFFFE0
1FFFFFFFD0
0BFFFFFF40
0BFFFFFF80
2FFFFFFFE0
7FFFFFFFF4
BFFE02FFF8
FFF800BFFC
FFF4007FFC
FFF400BFFC
FFFD01FFF8
BFFFABFFF8
7FFFFFFFF0
2FFFFFFFE0
0BFFFFFF80
02FFFFFD00
006FFFE000
0001550000
ENDCHAR
STARTCHAR nine
ENCODING 57
SWIDTH 560 0
DWIDTH 20 0
BBX 19 27 1 0
BITMAP
001AA94000
01BFFFE000
07FFFFFD00
1FFFFFFF00
3FFFFFFF80
7FFFFFFFD0
BFFD07FFE0
FFF402FFF0
FFF401FFF0
FFF402FFF4
BFFE5BFFF4
7FFFFFFFF4
2FFFFFFFF0
0FFFFFFFF0
02FFFFFFF0
007FFFFFE0
000153FFD0
00000BFFD0
00002FFF80
0000BFFF40
055BFFFE00
2FFFFFFC00
7FFFFFF400
7FFFFFD000
7FFFFF4000
7FFFF80000
2FFA400000
ENDCHAR
STARTCHAR colon
ENCODING 58
SWIDTH 238 0
DWIDTH 9 0
BBX 7 19 1 0
BITMAP
0100
7FE0
FFF4
FFF8
FFF8
FFF8
BFF4
1640
0000
0000
0000
0000
1A90
BFF4
FFF8
FFF8
FFF8
FFF4
6FE0
ENDCHAR
STARTCHAR semicolon
ENCODING 59
SWIDTH 237 0
DWIDTH 9 0
BBX 7 24 1 -6
BITMAP
7FE0
FFF4
FFF8
FFF8
FFF8
BFF4
1640
0000
0000
0000
0000
1A90
BFF4
FFF8
FFF8
FFF8
FFF4
6FF4
0BF0
0FE0
2FD0
FF80
FE00
A400
ENDCHAR
STARTCHAR less
ENCODING 60
SWIDTH 627 0
DWIDTH 23 0
BBX 22 25 0 0
BITMAP
000000000A00
00000000BFC0
00000007FFE0
0000002FFFF0
000002FFFFE0
00001FFFFF80
0001BFFFFD00
000BFFFFE000
007FFFFE4000
06FFFFF40000
2FFFFF800000
7FFFF9000000
7FFFE0000000
7FFFF8000000
2FFFFF400000
07FFFFE40000
00BFFFFE0000
001BFFFFD000
0001FFFFF900
00002FFFFF80
000006FFFFE0
0000007FFFF0
0000000BFFE0
00000000BFC0
000000001B40
ENDCHAR
STARTCHAR equal
ENCODING 61
SWIDTH 478 0
DWIDTH 17 0
BBX 16 14 1 1
BITMAP
1AAAAA90
BFFFFFFC
FFFFFFFD
FFFFFFFD
FFFFFFFC
6FFFFFF4
00000000
00000000
6FFFFFF4
FFFFFFFC
FFFFFFFD
FFFFFFFD
BFFFFFFC
15555550
ENDCHAR
STARTCHAR greater
ENCODING 62
SWIDTH 627 0
DWIDTH 23 0
BBX 22 25 0 0
BITMAP
064000000000
1FF400000000
3FFE00000000
7FFFD0000000
7FFFFD000000
1FFFFF800000
02FFFFF80000
007FFFFF4000
0007FFFFE000
0000BFFFFE00
00001FFFFFD0
000001FFFFE0
0000003FFFF0
000001BFFFF0
00000BFFFFD0
00007FFFFE00
0007FFFFF400
002FFFFF8000
01FFFFF80000
1FFFFFD00000
7FFFFE000000
7FFFE0000000
3FFF40000000
2FF400000000
0B8000000000
ENDCHAR
STARTCHAR question
ENCODING 63
SWIDTH 512 0
DWIDTH 18 0
BBX 18 27 0 0
BITMAP
001BFE4000
01FFFFE000
07FFFFFD00
0FFFFFFF00
2FFFFFFF80
3FFFAFFFC0
7FF802FFD0
7FF401FFD0
1BE001FFD0
004002FFD0
00000BFFC0
0000BFFF80
0003FFFF00
000BFFFD00
000BFFE000
000BFF0000
000BFF0000
0001A40000
0000000000
0000000000
0002A80000
000FFF0000
001FFF4000
001FFF4000
001FFF4000
000FFF0000
0007FD0000
ENDCHAR
STARTCHAR at
ENCODING 64
SWIDTH 908 0
DWIDTH 33 0
BBX 31 29 1 -5
BITMAP
00001AFFF9400000
0001FFFFFFF80000
001FFFFFFFFF4000
007FFFFFFFFFE000
01FFFFA5AFFFFD00
07FFE000007FFF00
0FFF40000107FF80
2FFC01BF9FE1FFD0
3FF00BFFFFE07FE0
7FD02FFFFFE02FF0
BFC0BFFFFFE01FF4
FF80FFE6FFD00FF8
FF81FF40BFD00FF8
FF42FF00BFD00BF8
FF42FF00BFC00BF8
FF42FF82FFC00BF8
FF81FFFFFF800FF8
BF80FFFFFF800FF4
BFC07FFFFF802FF0
7FD01FFEFF407FE0
3FF00194FF46FFD0
2FF80000FFFFFF80
0FFE0000BFFFFF00
07FFE4003FFFF800
02FFFFE90BFFD000
00BFFFFE01550000
001FFFFE00000000
0001FFFE00000000
000006A800000000
ENDCHAR
STARTCHAR A
ENCODING 65
SWIDTH 765 0
DWIDTH 28 0
BBX 27 28 0 -1
BITMAP
00000014000000
000001FE000000
000003FF800000
00000BFFC00000
00000FFFE00000
00002FFFF00000
00003FFFF80000
0000BFFFFC0000
0000FFFFFE0000
0002FFFFFF0000
0003FFFFFF8000
0007FFEFFFC000
000FFFCBFFE000
001FFF83FFF000
003FFF02FFF400
007FFE00FFFC00
00FFFFFFFFFD00
01FFFFFFFFFF00
03FFFFFFFFFF40
07FFFFFFFFFFC0
0FFFFFFFFFFFD0
1FFF955557FFF0
2FFF400002FFF4
7FFE000001FFF8
7FFD000000BFFC
3FF80000007FF8
0BF40000002FD0
00400000000500
ENDCHAR
STARTCHAR B
ENCODING 66
SWIDTH 646 0
DWIDTH 23 0
BBX 22 27 1 0
BITMAP
055555540000
3FFFFFFF4000
7FFFFFFFE000
BFFFFFFFF800
BFFFFFFFFD00
BFFFFFFFFF00
BFFFFFFFFF40
BFF8001FFF40
BFF8000BFF80
BFF8000BFF80
BFF8016FFF40
BFF80FFFFF00
BFF81FFFFD00
BFF81FFFFE00
BFF81FFFFF40
BFF806BFFF80
BFF80007FFC0
BFF80003FFD0
BFF80003FFD0
BFF80007FFD0
BFFD556FFFC0
BFFFFFFFFF80
BFFFFFFFFF40
BFFFFFFFFE00
BFFFFFFFF800
7FFFFFFFE000
2FFFFFFE4000
ENDCHAR
STARTCHAR C
ENCODING 67
SWIDTH 679 0
DWIDTH 24 0
BBX 23 28 1 -1
BITMAP
000005A94000
0000BFFFF900
000BFFFFFF80
007FFFFFFFF0
01FFFFFFFFF4
07FFFFFFFFF4
0FFFFFABFFF0
2FFFF4007FD0
3FFF80000A40
7FFE00000000
BFFC00000000
FFF800000000
FFF400000000
FFF400000000
FFF400000000
FFF400000000
BFF800000000
BFFD00000000
7FFF00000000
2FFFD0001F80
1FFFF901BFD0
0BFFFFFFFFF0
03FFFFFFFFF4
00FFFFFFFFF4
002FFFFFFFE0
0007FFFFFF40
00006FFFE400
000000550000
ENDCHAR
STARTCHAR D
ENCODING 68
SWIDTH 704 0
DWIDTH 25 0
BBX 24 27 1 0
BITMAP
055555400000
3FFFFFF90000
7FFFFFFF9000
BFFFFFFFF400
BFFFFFFFFE00
BFFFFFFFFF40
BFFFFFFFFFD0
BFF8006FFFE0
BFF8000BFFF4
BFF80001FFF8
BFF80000BFFC
BFF800007FFD
BFF800003FFD
BFF800003FFD
BFF800003FFD
BFF800003FFD
BFF800007FFC
BFF80000FFF8
BFF80002FFF8
BFF8001FFFF0
BFFD56BFFFE0
BFFFFFFFFF80
BFFFFFFFFF00
BFFFFFFFFC00
BFFFFFFFE000
7FFFFFFF4000
2FFFFFA40000
ENDCHAR
STARTCHAR E
ENCODING 69
SWIDTH 638 0
DWIDTH 23 0
BBX 21 27 1 0
BITMAP
055555555500
3FFFFFFFFF80
7FFFFFFFFFC0
BFFFFFFFFFC0
BFFFFFFFFFC0
BFFFFFFFFF80
BFFFFFFFFE40
BFF800000000
BFF800000000
BFF800000000
BFFD55550000
BFFFFFFF8000
BFFFFFFFC000
BFFFFFFFC000
BFFFFFFFC000
BFFFFFFFC000
BFFFFFFE4000
BFF800000000
BFF800000000
BFF800000000
BFFD55555500
BFFFFFFFFF80
BFFFFFFFFFC0
BFFFFFFFFFC0
BFFFFFFFFFC0
7FFFFFFFFF80
2FFFFFFFFE40
ENDCHAR
STARTCHAR F
ENCODING 70
SWIDTH 637 0
DWIDTH 23 0
BBX 21 27 1 0
BITMAP
055555555500
3FFFFFFFFF80
7FFFFFFFFFC0
BFFFFFFFFFC0
BFFFFFFFFFC0
BFFFFFFFFF80
BFFFFFFFFE40
BFF800000000
BFF800000000
BFF800000000
BFFD55550000
BFFFFFFF8000
BFFFFFFFC000
BFFFFFFFC000
BFFFFFFFC000
BFFFFFFFC000
BFFFFFFF4000
BFF800000000
BFF800000000
BFF800000000
BFF800000000
BFF800000000
BFF800000000
BFF800000000
BFF800000000
7FF800000000
2FE000000000
ENDCHAR
STARTCHAR G
ENCODING 71
SWIDTH 714 0
DWIDTH 26 0
BBX 24 28 1 -1
BITMAP
00001ABA4000
0001FFFFF900
001FFFFFFF80
007FFFFFFFF0
02FFFFFFFFF4
07FFFFFFFFF4
0FFFFEABFFE0
2FFFE0007F80
3FFF40000500
7FFD00000000
BFFC00000000
FFF800BFFFE4
FFF401FFFFFC
FFF401FFFFFD
FFF401FFFFFD
FFF800FFFFFD
BFFC00157FFD
BFFD00003FFD
7FFF40003FFD
2FFFD0003FFD
1FFFF901BFFD
0BFFFFFFFFFD
02FFFFFFFFFD
00BFFFFFFFF8
002FFFFFFFE0
0007FFFFFF80
00006FFFE800
000001550000
ENDCHAR
STARTCHAR H
ENCODING 72
SWIDTH 699 0
DWIDTH 25 0
BBX 23 27 1 0
BITMAP
054000000540
3FF400007FF4
7FF80000BFF8
BFF80000BFF8
BFF80000BFF8
BFF80000BFF8
BFF80000BFF8
BFF80000BFF8
BFF80000BFF8
BFF80000BFF8
BFF80000BFF8
BFFFFFFFFFF8
BFFFFFFFFFF8
BFFFFFFFFFF8
BFFFFFFFFFF8
BFFFFFFFFFF8
BFFD5555BFF8
BFF80000BFF8
BFF80000BFF8
BFF80000BFF8
BFF80000BFF8
BFF80000BFF8
BFF80000BFF8
BFF80000BFF8
BFF80000BFF8
7FF800007FF4
2FE000002FE0
ENDCHAR
STARTCHAR I
ENCODING 73
SWIDTH 257 0
DWIDTH 9 0
BBX 7 27 1 0
BITMAP
0540
3FF4
7FF8
BFF8
BFF8
BFF8
BFF8
BFF8
BFF8
BFF8
BFF8
BFF8
BFF8
BFF8
BFF8
BFF8
BFF8
BFF8
BFF8
BFF8
BFF8
BFF8
BFF8
BFF8
BFF8
7FF8
2FE0
ENDCHAR
STARTCHAR J
ENCODING 74
SWIDTH 549 0
DWIDTH 20 0
BBX 19 28 0 -1
BITMAP
0000000540
0000007FE0
000000FFF4
000000FFF4
000000FFF4
000000FFF4
000000FFF4
000000FFF4
000000FFF4
000000FFF4
000000FFF4
000000FFF4
000000FFF4
000000FFF4
000000FFF4
000000FFF4
000000FFF4
000000FFF4
014001FFF4
0BE002FFF0
2FFD1BFFF0
7FFFFFFFE0
7FFFFFFFC0
3FFFFFFF40
1FFFFFFE00
02FFFFF400
006FFF8000
0001540000
ENDCHAR
STARTCHAR K
ENCODING 75
SWIDTH 639 0
DWIDTH 23 0
BBX 21 28 1 -1
BITMAP
05400000A400
3FF40007FD00
7FF8000FFF40
BFF8002FFF80
BFF800BFFF40
BFF802FFFE00
BFF807FFFC00
BFF81FFFF000
BFF87FFFD000
BFF9FFFF4000
BFFFFFFD0000
BFFFFFF40000
BFFFFFC00000
BFFFFF000000
BFFFFF800000
BFFFFFE00000
BFFFFFF80000
BFFAFFFE0000
BFF8BFFF8000
BFF82FFFE000
BFF80FFFF400
BFF803FFFD00
BFF801FFFF40
BFF8007FFF80
BFF8001FFF80
7FF8000BFF00
2FE00002F800
000000005000
ENDCHAR
STARTCHAR L
ENCODING 76
SWIDTH 587 0
DWIDTH 21 0
BBX 20 27 1 0
BITMAP
0540000000
3FF4000000
7FF8000000
BFF8000000
BFF8000000
BFF8000000
BFF8000000
BFF8000000
BFF8000000
BFF8000000
BFF8000000
BFF8000000
BFF8000000
BFF8000000
BFF8000000
BFF8000000
BFF8000000
BFF8000000
BFF8000000
BFF8000000
BFF8000000
BFFD555550
BFFFFFFFF8
BFFFFFFFFD
BFFFFFFFFD
7FFFFFFFFC
2FFFFFFFF8
ENDCHAR
STARTCHAR M
ENCODING 77
SWIDTH 870 0
DWIDTH 31 0
BBX 29 27 1 0
BITMAP
0540000000005400
3FF400000003FF40
7FFD0000000FFF80
BFFF0000002FFFC0
BFFF8000007FFFC0
BFFFD00001FFFFC0
BFFFF40003FFFFC0
BFFFFC000BFFFFC0
BFFFFE001FFFFFC0
BFFFFF407FFFFFC0
BFFFFFD0FFFFFFC0
BFFFFFF2FFFFFFC0
BFFAFFFFFFFBFFC0
BFF8FFFFFFD7FFC0
BFF87FFFFF47FFC0
BFF81FFFFE07FFC0
BFF80BFFFC07FFC0
BFF803FFF407FFC0
BFF801FFE007FFC0
BFF8007F8007FFC0
BFF800040007FFC0
BFF800000007FFC0
BFF800000007FFC0
BFF800000007FFC0
BFF800000007FF80
7FF800000007FF80
2FE000000002FE00
ENDCHAR
STARTCHAR N
ENCODING 78
SWIDTH 720 0
DWIDTH 26 0
BBX 24 27 1 0
BITMAP
054000000150
3FF400001FFC
7FFD00002FFD
BFFF00003FFD
BFFF80003FFD
BFFFD0003FFD
BFFFF4003FFD
BFFFF8003FFD
BFFFFE003FFD
BFFFFF403FFD
BFFFFFC03FFD
BFFFFFE03FFD
BFFAFFF83FFD
BFF8FFFD3FFD
BFF87FFF3FFD
BFF82FFFBFFD
BFF80BFFFFFD
BFF803FFFFFD
BFF801FFFFFD
BFF800BFFFFD
BFF8002FFFFD
BFF8000FFFFD
BFF80007FFFD
BFF80002FFFD
BFF80000BFFD
7FF800003FFD
2FE000001BF8
ENDCHAR
STARTCHAR O
ENCODING 79
SWIDTH 775 0
DWIDTH 28 0
BBX 26 28 1 -1
BITMAP
000016A9000000
0001FFFFF40000
001FFFFFFE4000
007FFFFFFFD000
01FFFFFFFFF400
07FFFFFFFFFD00
0FFFFFAFFFFF00
2FFFE401BFFF80
3FFF80002FFFC0
7FFE00000BFFD0
BFFC000003FFE0
FFF8000002FFE0
FFF4000002FFF0
FFF4000001FFF0
FFF4000001FFF0
FFF4000002FFF0
FFF8000002FFE0
BFFD000007FFD0
7FFE00000FFFD0
3FFF80002FFF80
1FFFF401FFFF40
0BFFFFFFFFFE00
03FFFFFFFFFC00
01FFFFFFFFF400
007FFFFFFFC000
000BFFFFFE0000
0001BFFFE40000
00000555000000
ENDCHAR
STARTCHAR P
ENCODING 80
SWIDTH 632 0
DWIDTH 23 0
BBX 21 27 1 0
BITMAP
055555400000
3FFFFFF90000
7FFFFFFF8000
BFFFFFFFF400
BFFFFFFFFC00
BFFFFFFFFE00
BFFFFFFFFF00
BFF8006FFF40
BFF8000FFF80
BFF8000BFF80
BFF8000BFF80
BFF8000BFF80
BFF8002FFF80
BFFEAAFFFF40
BFFFFFFFFF00
BFFFFFFFFD00
BFFFFFFFF400
BFFFFFFFD000
BFFFFFFE0000
BFFEAA900000
BFF800000000
BFF800000000
BFF800000000
BFF800000000
BFF800000000
7FF800000000
2FE000000000
ENDCHAR
STARTCHAR Q
ENCODING 81
SWIDTH 830 0
DWIDTH 30 0
BBX 29 28 1 -1
BITMAP
000016A900000000
0001FFFFF4000000
001FFFFFFE400000
007FFFFFFFD00000
01FFFFFFFFF40000
07FFFFFFFFFD0000
0FFFFFAFFFFF0000
2FFFE401BFFF4000
3FFF80002FFFC000
7FFE00000BFFD000
BFFC000003FFE000
FFF8000002FFE000
FFF4000002FFF000
FFF4000001FFF000
FFF4000001FFF000
FFF4000002FFF000
FFF8000002FFE000
BFFD000007FFD000
7FFE00000FFFD000
3FFF80002FFF8000
1FFFF401FFFFE000
0BFFFFFFFFFFFD00
03FFFFFFFFFFFF00
01FFFFFFFFFFFF40
007FFFFFFFFFFF00
000BFFFFFE1FFD00
0001BFFFE402F800
0000055500005000
ENDCHAR
STARTCHAR R
ENCODING 82
SWIDTH 631 0
DWIDTH 23 0
BBX 21 27 1 0
BITMAP
055555400000
3FFFFFF90000
7FFFFFFF8000
BFFFFFFFF400
BFFFFFFFFC00
BFFFFFFFFE00
BFFFFFFFFF00
BFF8006FFF40
BFF8000FFF80
BFF8000BFF80
BFF80007FFC0
BFF8000BFF80
BFF8001FFF80
BFFEAAFFFF40
BFFFFFFFFF00
BFFFFFFFFD00
BFFFFFFFF800
BFFFFFFFF400
BFFFFFFFFC00
BFFEAABFFD00
BFF8007FFE00
BFF8002FFF40
BFF8001FFF80
BFF8000FFFC0
BFF80007FFC0
7FF80003FF80
2FE00001FD00
ENDCHAR
STARTCHAR S
ENCODING 83
SWIDTH 583 0
DWIDTH 21 0
BBX 19 28 1 -1
BITMAP
0016AA4000
00BFFFF900
07FFFFFF40
0FFFFFFFD0
2FFFFFFFE0
3FFFFFFFD0
7FFE46FF80
BFFC007E00
BFF8000000
7FFD000000
7FFF940000
3FFFFFA400
1FFFFFFE40
0BFFFFFFD0
01BFFFFFF0
001BFFFFF8
00006BFFFC
000001FFFC
1F80007FFC
7FE0007FFC
FFFD00FFFC
FFFFABFFF8
BFFFFFFFF4
3FFFFFFFE0
1FFFFFFF80
02FFFFFE00
006FFFE000
0001540000
ENDCHAR
STARTCHAR T
ENCODING 84
SWIDTH 731 0
DWIDTH 26 0
BBX 26 27 0 0
BITMAP
05555555555540
7FFFFFFFFFFFD0
7FFFFFFFFFFFE0
7FFFFFFFFFFFE0
7FFFFFFFFFFFE0
2AAAAFFFEAAA80
00000FFF400000
00000FFF400000
00000FFF400000
00000FFF400000
00000FFF400000
00000FFF400000
00000FFF400000
00000FFF400000
00000FFF400000
00000FFF400000
00000FFF400000
00000FFF400000
00000FFF400000
00000FFF400000
00000FFF400000
00000FFF400000
00000FFF400000
00000FFF400000
00000FFF400000
00000BFF000000
000006FD000000
ENDCHAR
STARTCHAR U
ENCODING 85
SWIDTH 726 0
DWIDTH 26 0
BBX 24 28 1 -1
BITMAP
054000000150
3FF400001FFD
7FF800002FFE
BFF800002FFE
BFFC00002FFE
BFFC00002FFE
BFFC00002FFE
BFFC00002FFE
BFFC00002FFE
BFFC00002FFE
BFFC00002FFE
BFFC00002FFE
BFFC00002FFE
BFFC00002FFE
BFFC00002FFE
7FFC00002FFE
7FFC00003FFE
7FFD00007FFD
3FFE0000BFFC
2FFF4001FFFC
1FFFE40BFFF4
0BFFFFFFFFF0
03FFFFFFFFD0
01FFFFFFFF80
007FFFFFFE00
001FFFFFF400
0001FFFF8000
000005540000
ENDCHAR
STARTCHAR V
ENCODING 86
SWIDTH 783 0
DWIDTH 28 0
BBX 28 27 0 0
BITMAP
01900000000640
1FF40000001FF4
7FFC0000002FFD
7FFD0000007FFE
3FFE000000BFFD
2FFF400000FFFC
1FFF800002FFF4
0BFFD00003FFF0
07FFE00007FFD0
02FFF0000FFFC0
01FFF8001FFF40
00BFFC002FFF00
007FFD007FFD00
002FFF00BFFC00
001FFF41FFF400
000BFFC2FFF000
0007FFD3FFD000
0002FFEBFFC000
0001FFFFFF4000
0000BFFFFF0000
00007FFFFD0000
00002FFFFC0000
00001FFFF80000
00000BFFF00000
000007FFE00000
000002FFC00000
000000BE000000
ENDCHAR
STARTCHAR W
ENCODING 87
SWIDTH 999 0
DWIDTH 36 0
BBX 36 27 0 0
BITMAP
019000001400000640
1FF40001FF40001FF4
7FFC0003FFC0003FFD
7FFD0007FFD0007FFD
3FFE000BFFE000BFFC
2FFF000FFFF000FFF8
1FFF401FFFF401FFF4
0FFF802FFFF802FFF0
0BFFC03FFFFC03FFE0
07FFC07FFFFD07FFD0
03FFD0BFFFFE0BFFC0
02FFE0FFFFFF0FFF80
01FFF1FFFFFF5FFF40
00FFF6FFEBFFAFFF00
00BFFFFFD7FFFFFE00
007FFFFFC3FFFFFD00
003FFFFF82FFFFFC00
002FFFFF41FFFFF800
001FFFFF00FFFFF400
000FFFFE00BFFFF000
000BFFFD007FFFE000
0007FFFC003FFFD000
0003FFF8002FFFC000
0002FFF4001FFF8000
0001FFF0000FFF4000
0000BFD0000BFE0000
00002F400002F80000
ENDCHAR
STARTCHAR X
ENCODING 88
SWIDTH 741 0
DWIDTH 27 0
BBX 26 28 0 -1
BITMAP
07E00000002E00
1FF8000000BFC0
3FFD000002FFE0
7FFF40000BFFF0
3FFFD0002FFFE0
1FFFF4007FFFC0
07FFFC01FFFF40
02FFFE07FFFD00
00BFFF8FFFF400
002FFFFFFFD000
000BFFFFFF8000
0003FFFFFE0000
0000FFFFF80000
00007FFFF00000
0000BFFFF40000
0002FFFFFD0000
000BFFFFFF4000
001FFFFFFFD000
007FFFDFFFF000
01FFFF47FFFC00
07FFFD02FFFF00
1FFFF400BFFF80
3FFFE0002FFFE0
7FFF80000FFFF0
7FFE000003FFF0
2FF8000001FFD0
0BE00000007F40
00400000000400
ENDCHAR
STARTCHAR Y
ENCODING 89
SWIDTH 686 0
DWIDTH 25 0
BBX 24 27 0 0
BITMAP
029000000290
1FF400000BF8
3FFC00001FFE
7FFE00003FFF
3FFF4000BFFE
2FFFC001FFFD
0FFFE003FFF8
07FFF40BFFF0
02FFF81FFFD0
00FFFD2FFF80
007FFFBFFF00
002FFFFFFD00
000FFFFFF800
0007FFFFF000
0002FFFFD000
0000FFFF8000
00007FFF0000
00003FFE0000
00003FFE0000
00003FFE0000
00003FFE0000
00003FFE0000
00003FFE0000
00003FFE0000
00003FFE0000
00002FFD0000
00001BF80000
ENDCHAR
STARTCHAR Z
ENCODING 90
SWIDTH 643 0
DWIDTH 23 0
BBX 22 27 1 0
BITMAP
155555555400
BFFFFFFFFE00
FFFFFFFFFF40
FFFFFFFFFF80
FFFFFFFFFF80
BFFFFFFFFF40
6BFFFFFFFE00
000003FFF800
00000BFFF000
00001FFFD000
00007FFF8000
0000FFFF0000
0002FFFD0000
0007FFF40000
000FFFE00000
002FFFC00000
007FFF400000
01FFFE000000
03FFF8000000
0BFFF0000000
1FFFE0000000
3FFFFFFFFF40
BFFFFFFFFFC0
FFFFFFFFFFD0
FFFFFFFFFFD0
BFFFFFFFFFC0
2FFFFFFFFF40
ENDCHAR
STARTCHAR bracketleft
ENCODING 91
SWIDTH 348 0
DWIDTH 13 0
BBX 11 36 1 -8
BITMAP
1AAAA4
7FFFFC
BFFFFC
BFFFFC
BFFFF8
BFF950
BFF400
BFF400
BFF400
BFF400
BFF400
BFF400
BFF400
BFF400
BFF400
BFF400
BFF400
BFF400
BFF400
BFF400
BFF400
BFF400
BFF400
BFF400
BFF400
BFF400
BFF400
BFF400
BFF400
BFF400
BFF400
BFFFF4
BFFFFC
BFFFFC
7FFFFC
2FFFF8
ENDCHAR
STARTCHAR backslash
ENCODING 92
SWIDTH 528 0
DWIDTH 19 0
BBX 19 30 0 -2
BITMAP
0BE0000000
3FF4000000
7FFC000000
7FFD000000
2FFE000000
1FFF400000
0BFF800000
07FFD00000
03FFE00000
01FFF40000
00FFF80000
007FFD0000
003FFE0000
001FFF0000
000FFF8000
0007FFC000
0003FFE000
0002FFF000
0000FFF800
0000BFFC00
00003FFE00
00002FFF00
00000FFF40
00000BFFC0
000007FFD0
000002FFF0
000001FFF4
000000BFF4
0000007FF0
0000002E40
ENDCHAR
STARTCHAR bracketright
ENCODING 93
SWIDTH 348 0
DWIDTH 13 0
BBX 11 36 0 -8
BITMAP
2AAAA4
7FFFFC
7FFFFC
7FFFFC
7FFFFC
057FFC
002FFC
002FFC
002FFC
002FFC
002FFC
002FFC
002FFC
002FFC
002FFC
002FFC
002FFC
002FFC
002FFC
002FFC
002FFC
002FFC
002FFC
002FFC
002FFC
002FFC
002FFC
002FFC
002FFC
002FFC
002FFC
3FFFFC
7FFFFC
7FFFFC
7FFFFC
3FFFF4
ENDCHAR
STARTCHAR asciicircum
ENCODING 94
SWIDTH 526 0
DWIDTH 19 0
BBX 17 11 1 9
BITMAP
0001900000
0007F40000
001FFD0000
007FFF4000
01FFFFD000
07FFFFF400
1FFFFFFD00
7FFE2FFF40
7FF80BFF40
3FE002FE00
0B8000B800
ENDCHAR
STARTCHAR underscore
ENCODING 95
SWIDTH 826 0
DWIDTH 30 0
BBX 30 6 0 -9
BITMAP
2AAAAAAAAAAAAA40
7FFFFFFFFFFFFFC0
7FFFFFFFFFFFFFD0
7FFFFFFFFFFFFFC0
3FFFFFFFFFFFFF80
0555555555555400
ENDCHAR
STARTCHAR grave
ENCODING 96
SWIDTH 482 0
DWIDTH 17 0
BBX 11 8 3 20
BITMAP
1A4000
3FF900
7FFFE4
BFFFFC
7FFFFC
0BFFF8
001BF4
000050
ENDCHAR
STARTCHAR a
ENCODING 97
SWIDTH 596 0
DWIDTH 21 0
BBX 19 19 1 0
BITMAP
001AE81BE4
00BFFF7FF8
03FFFFFFFC
0FFFFFFFFC
2FFFFFFFFC
7FFFFFFFFC
BFFF5BFFFC
FFFC01FFFC
FFF400BFFC
FFF400BFFC
FFF400BFFC
FFFC01FFFC
BFFF9BFFFC
7FFFFFFFFC
2FFFFFFFFC
0FFFFFFFFC
03FFFFFFFC
00BFFF7FF8
001AE91BE4
ENDCHAR
STARTCHAR b
ENCODING 98
SWIDTH 592 0
DWIDTH 21 0
BBX 20 28 1 0
BITMAP
1AA0000000
7FF4000000
BFF8000000
BFF8000000
BFF8000000
BFF8000000
BFF8000000
BFF8000000
BFF8000000
BFF86F9000
BFFAFFFD00
BFFFFFFF40
BFFFFFFFD0
BFFFFFFFF0
BFFFFFFFF4
BFFF96FFFC
BFFE00BFFD
BFFC003FFD
BFFC003FFD
BFFC003FFD
BFFE00BFFD
BFFF96FFFC
BFFFFFFFF4
BFFFFFFFF0
BFFFFFFFD0
BFFFFFFF40
7FFBFFFD00
2FE06F9000
ENDCHAR
STARTCHAR c
ENCODING 99
SWIDTH 517 0
DWIDTH 19 0
BBX 17 19 1 0
BITMAP
001BFF9000
00BFFFFD00
03FFFFFF40
0FFFFFFF80
2FFFFFFF80
7FFFFFFF00
BFFF97FD00
FFFC006400
FFF8000000
FFF4000000
FFF8000000
FFFC006000
BFFF57FD00
7FFFFFFF00
2FFFFFFF80
0FFFFFFF80
03FFFFFF40
00BFFFFD00
000BFF9000
ENDCHAR
STARTCHAR d
ENCODING 100
SWIDTH 598 0
DWIDTH 22 0
BBX 19 28 1 0
BITMAP
0000001AA4
0000003FF8
0000007FFC
0000007FFC
0000007FFC
0000007FFC
0000007FFC
0000007FFC
0000007FFC
001AF97FFC
00BFFFBFFC
02FFFFFFFC
0BFFFFFFFC
1FFFFFFFFC
3FFFFFFFFC
7FFF9BFFFC
BFFD00FFFC
FFF800BFFC
FFF4007FFC
FFF800BFFC
BFFD00FFFC
7FFF9BFFFC
3FFFFFFFFC
1FFFFFFFFC
0BFFFFFFFC
02FFFFFFFC
00BFFFBFFC
001AF91BE4
ENDCHAR
STARTCHAR e
ENCODING 101
SWIDTH 573 0
DWIDTH 21 0
BBX 19 21 1 -1
BITMAP
0000550000
001BFFE400
01FFFFFE00
07FFFFFFC0
1FFFFFFFE0
2FFFFFFFF4
7FFF96FFF8
BFFE00BFF8
FFF800BFF8
FFFEAAFFF8
FFFFFFFFF4
FFFFFFFFE0
FFFEAAAA40
BFFC000000
7FFF405B40
3FFFFFFFD0
1FFFFFFFE0
07FFFFFFE0
01FFFFFFD0
002FFFFE40
0001555000
ENDCHAR
STARTCHAR f
ENCODING 102
SWIDTH 450 0
DWIDTH 16 0
BBX 16 28 0 0
BITMAP
00006BE0
0007FFF4
001FFFF8
003FFFF8
00BFFFF8
00FFFFF4
00FFF940
00FFF400
00FFF400
1AFFFBF8
3FFFFFFD
7FFFFFFE
7FFFFFFE
7FFFFFFE
3FFFFFFD
05FFF550
00FFF400
00FFF400
00FFF400
00FFF400
00FFF400
00FFF400
00FFF400
00FFF400
00FFF400
00FFF000
00FFF000
007FD000
ENDCHAR
STARTCHAR g
ENCODING 103
SWIDTH 585 0
DWIDTH 21 0
BBX 19 27 1 -8
BITMAP
001BE42FE0
00BFFF7FF4
07FFFFFFF8
0FFFFFFFF8
2FFFFFFFF8
7FFFFFFFF8
BFFE57FFF8
FFF801FFF8
FFF400FFF8
FFF000BFF8
FFF400FFF8
BFFD02FFF8
7FFFEFFFF8
3FFFFFFFF8
1FFFFFFFF8
0BFFFFFFF8
02FFFFFFF8
006FFDBFF8
000550BFF8
004000FFF4
03F402FFF4
0BFFAFFFF0
1FFFFFFFD0
1FFFFFFF80
0BFFFFFE00
02FFFFF800
001BFF8000
ENDCHAR
STARTCHAR h
ENCODING 104
SWIDTH 605 0
DWIDTH 22 0
BBX 20 28 1 0
BITMAP
1AA0000000
7FF4000000
BFF8000000
BFF8000000
BFF8000000
BFF8000000
BFF8000000
BFF8000000
BFF8000000
BFF86F9000
BFF9FFFD00
BFFFFFFF80
BFFFFFFFD0
BFFFFFFFF0
BFFFFFFFF8
BFFF96FFFC
BFFE00BFFC
BFFC003FFD
BFF8003FFD
BFF8003FFD
BFF8003FFD
BFF8003FFD
BFF8003FFD
BFF8003FFD
BFF8003FFD
BFF8003FFD
7FF8002FFC
2FE0001BF4
ENDCHAR
STARTCHAR i
ENCODING 105
SWIDTH 255 0
DWIDTH 9 0
BBX 7 28 1 0
BITMAP
1AA0
7FF4
BFF8
BFF8
7FF8
3FF4
0550
0000
0000
2FE0
7FF8
BFF8
BFF8
BFF8
BFF8
BFF8
BFF8
BFF8
BFF8
BFF8
BFF8
BFF8
BFF8
BFF8
BFF8
BFF8
7FF8
2FE0
ENDCHAR
STARTCHAR j
ENCODING 106
SWIDTH 252 0
DWIDTH 9 0
BBX 13 36 -5 -8
BITMAP
0001A900
0007FF40
000BFF80
000BFF80
0007FF80
0003FF40
00005400
00000000
00000000
0002FE00
0007FF40
000BFF80
000BFF80
000BFF80
000BFF80
000BFF80
000BFF80
000BFF80
000BFF80
000BFF80
000BFF80
000BFF80
000BFF80
000BFF80
000BFF80
000BFF80
000BFF80
000BFF80
000FFF40
007FFF40
2FFFFF00
BFFFFD00
BFFFF800
BFFFE000
BFFF8000
3FF80000
ENDCHAR
STARTCHAR k
ENCODING 107
SWIDTH 536 0
DWIDTH 19 0
BBX 18 29 1 -1
BITMAP
2BE0000000
7FF8000000
BFF8000000
BFF8000000
BFF8000000
BFF8000000
BFF8000000
BFF8000000
BFF8000000
BFF8000000
BFF802F800
BFF80BFE00
BFF82FFF40
BFF8FFFF40
BFFFFFFF00
BFFFFFFD00
BFFFFFE000
BFFFFF8000
BFFFFF0000
BFFFFF8000
BFFFFFF000
BFFFFFFD00
BFFAFFFF40
BFF8BFFFD0
BFF82FFFE0
BFF80BFFD0
7FF802FF80
2FE0007E00
0000000400
ENDCHAR
STARTCHAR l
ENCODING 108
SWIDTH 327 0
DWIDTH 12 0
BBX 11 28 1 0
BITMAP
2BE000
7FF400
BFF800
BFF800
BFF800
BFF800
BFF800
BFF800
BFF800
BFF800
BFF800
BFF800
BFF800
BFF800
BFF800
BFF800
BFF800
BFF800
BFF800
BFF800
BFF800
BFFC00
7FFFE0
7FFFF0
3FFFF4
2FFFF4
1FFFF0
01BFE0
ENDCHAR
STARTCHAR m
ENCODING 109
SWIDTH 851 0
DWIDTH 31 0
BBX 29 19 1 0
BITMAP
2FE06F9002FE4000
7FF6FFF81FFFD000
BFFFFFFE7FFFF400
BFFFFFFFFFFFFC00
BFFFFFFFFFFFFD00
BFFFFFFFFFFFFE00
BFFF5FFFF9BFFF00
BFFD07FFF02FFF00
BFFC03FFE01FFF00
BFF803FFE00FFF40
BFF802FFE00FFF40
BFF802FFE00FFF40
BFF802FFE00FFF40
BFF802FFE00FFF40
BFF802FFE00FFF40
BFF802FFD00FFF40
BFF802FFD00FFF40
7FF802FFD00FFF00
2FE000BF8006FD00
ENDCHAR
STARTCHAR n
ENCODING 110
SWIDTH 606 0
DWIDTH 22 0
BBX 20 19 1 0
BITMAP
2FE06FA000
7FFAFFFE00
BFFFFFFF80
BFFFFFFFD0
BFFFFFFFF0
BFFFFFFFF8
BFFF96FFFC
BFFD00BFFD
BFFC003FFD
BFF8003FFD
BFF8003FFD
BFF8003FFD
BFF8003FFD
BFF8003FFD
BFF8003FFD
BFF8003FFD
BFF8003FFD
7FF8002FFD
2FE0000BF4
ENDCHAR
STARTCHAR o
ENCODING 111
SWIDTH 600 0
DWIDTH 22 0
BBX 20 21 1 -1
BITMAP
0000550000
001BFFE400
00BFFFFE00
07FFFFFF80
0FFFFFFFE0
2FFFFFFFF4
7FFFFFFFFC
BFFE41FFFD
FFF8007FFE
FFF4002FFE
FFF4002FFE
FFF4002FFE
FFF8007FFD
BFFF42FFFD
7FFFFFFFFC
2FFFFFFFF4
0FFFFFFFE0
03FFFFFF80
00BFFFFE00
001BFFE400
0000550000
ENDCHAR
STARTCHAR p
ENCODING 112
SWIDTH 582 0
DWIDTH 21 0
BBX 19 28 1 -9
BITMAP
2FE0AF9000
7FFBFFF800
BFFFFFFF00
BFFFFFFFC0
BFFFFFFFE0
BFFFFFFFF4
BFFF96FFF8
BFFD00BFFC
BFFC007FFC
BFF8007FFC
BFFC007FFC
BFFE01FFF8
BFFFEBFFF4
BFFFFFFFF0
BFFFFFFFD0
BFFFFFFF80
BFFFFFFE00
BFFAFFF400
BFF8154000
BFF8000000
BFF8000000
BFF8000000
BFF8000000
BFF8000000
BFF8000000
7FF4000000
3FF0000000
0100000000
ENDCHAR
STARTCHAR q
ENCODING 113
SWIDTH 582 0
DWIDTH 21 0
BBX 19 28 1 -9
BITMAP
001BE42FE0
00BFFFBFF4
07FFFFFFF4
0FFFFFFFF8
2FFFFFFFF8
7FFFFFFFF8
BFFE5BFFF8
FFF801FFF8
FFF400FFF8
FFF000FFF8
FFF400FFF8
BFFD02FFF8
BFFFAFFFF8
3FFFFFFFF8
1FFFFFFFF8
0BFFFFFFF8
02FFFFFFF8
007FFEBFF8
000550BFF8
000000BFF8
000000BFF8
000000BFF8
000000BFF8
000000BFF8
000000BFF8
000000BFF4
0000003FE0
0000000100
ENDCHAR
STARTCHAR r
ENCODING 114
SWIDTH 457 0
DWIDTH 16 0
BBX 15 19 1 0
BITMAP
2FE07FE0
7FFAFFF8
BFFFFFFC
BFFFFFF8
BFFFFFF4
BFFFFFF0
BFFE4180
BFFC0000
BFF80000
BFF80000
BFF80000
BFF80000
BFF80000
BFF80000
BFF80000
BFF80000
BFF80000
7FF80000
2FE00000
ENDCHAR
STARTCHAR s
ENCODING 115
SWIDTH 489 0
DWIDTH 18 0
BBX 16 21 1 -1
BITMAP
00055000
01BFFF80
0BFFFFF4
2FFFFFF8
3FFFFFF8
7FFEAFF0
7FF40190
7FFD4000
3FFFF900
2FFFFFE0
1FFFFFF8
07FFFFFD
007FFFFE
0505BFFE
3FD01FFE
BFFEBFFE
FFFFFFFD
FFFFFFF8
6FFFFFF0
06FFFE40
00155000
ENDCHAR
STARTCHAR t
ENCODING 116
SWIDTH 449 0
DWIDTH 16 0
BBX 16 26 0 0
BITMAP
00154000
00BFE000
00FFF000
00FFF000
00FFF000
00FFF000
00FFF000
2FFFFBF8
7FFFFFFD
7FFFFFFE
7FFFFFFE
7FFFFFFE
3FFFFFFD
05FFF550
00FFF000
00FFF000
00FFF000
00FFF000
00FFF000
00FFF400
00FFFFE0
00BFFFF4
007FFFF8
003FFFF8
000BFFF4
0001BFE0
ENDCHAR
STARTCHAR u
ENCODING 117
SWIDTH 606 0
DWIDTH 22 0
BBX 20 19 1 0
BITMAP
2FE0001BF8
7FF8002FFD
BFF8003FFD
BFF8003FFD
BFF8003FFD
BFF8003FFD
BFF8003FFD
BFF8003FFD
BFF8003FFD
BFF8003FFD
7FFC003FFD
7FFD00BFFD
3FFF96FFFD
2FFFFFFFFD
1FFFFFFFFD
0BFFFFFFFD
02FFFFFFFD
00BFFF6FFD
001AF81BF4
ENDCHAR
STARTCHAR v
ENCODING 118
SWIDTH 638 0
DWIDTH 23 0
BBX 23 20 0 0
BITMAP
004000000400
0BF000003F80
2FF80000BFE0
7FFD0001FFF4
7FFE0002FFF4
3FFF4007FFF0
1FFF800BFFD0
0BFFD01FFF80
07FFE03FFF00
02FFF47FFE00
00FFFCFFFC00
007FFEFFF400
002FFFFFE000
001FFFFFD000
000BFFFF8000
0003FFFF0000
0001FFFD0000
0000FFFC0000
00007FF40000
00001FD00000
ENDCHAR
STARTCHAR w
ENCODING 119
SWIDTH 793 0
DWIDTH 29 0
BBX 28 19 0 0
BITMAP
0BF0007E0007F4
3FF801FFC00FFE
7FFC03FFD01FFF
7FFD07FFE03FFF
3FFE0BFFF07FFD
1FFF0FFFF4BFFC
0FFF9FFFFCFFF8
0BFFEFFFFEFFF4
07FFFFFFFFFFE0
02FFFFFFFFFFD0
01FFFFFFFFFFC0
00FFFFFBFFFF80
00BFFFE3FFFF40
007FFFD2FFFE00
002FFFC1FFFD00
001FFF80FFFC00
000FFF40BFF800
0007FE003FF000
0002F8001FD000
ENDCHAR
STARTCHAR x
ENCODING 120
SWIDTH 567 0
DWIDTH 20 0
BBX 20 21 0 -1
BITMAP
0000000040
0BE00007E0
2FF8001FFC
7FFE007FFE
7FFF81FFFE
3FFFE7FFFD
1FFFFFFFF8
07FFFFFFE0
01FFFFFF80
007FFFFE00
001FFFF800
007FFFFE00
01FFFFFF80
07FFFFFFE0
1FFFFFFFF8
3FFFE7FFFD
7FFF81FFFE
7FFE007FFE
2FF8001FFC
07E00007E0
0000000040
ENDCHAR
STARTCHAR y
ENCODING 121
SWIDTH 604 0
DWIDTH 22 0
BBX 21 29 0 -9
BITMAP
004000001000
0BF00001FE00
3FF80003FF80
7FFD0007FFC0
7FFF000BFFC0
2FFF801FFF80
0FFFC02FFF00
0BFFE07FFE00
03FFF4BFFD00
01FFFCFFF800
00BFFFFFF400
003FFFFFF000
002FFFFFD000
000FFFFFC000
0007FFFF8000
0002FFFF0000
0001FFFE0000
0000BFFD0000
0000FFF80000
0002FFF40000
0003FFF00000
0007FFD00000
000FFFC00000
001FFF800000
002FFF000000
003FFE000000
002FFD000000
000BF8000000
000050000000
ENDCHAR
STARTCHAR z
ENCODING 122
SWIDTH 586 0
DWIDTH 21 0
BBX 20 19 1 0
BITMAP
1FFFFFFF90
3FFFFFFFF4
7FFFFFFFF8
7FFFFFFFF8
7FFFFFFFF4
2FFFFFFFE0
0555BFFF80
0001FFFE00
0007FFF400
002FFFD000
00BFFF4000
02FFFD0000
0FFFF95540
3FFFFFFFF8
BFFFFFFFFC
FFFFFFFFFD
FFFFFFFFFC
BFFFFFFFFC
2FFFFFFFF4
ENDCHAR
STARTCHAR braceleft
ENCODING 123
SWIDTH 381 0
DWIDTH 14 0
BBX 13 36 0 -8
BITMAP
00006A40
0007FFC0
000FFFC0
002FFFC0
003FFF80
007FF500
007FF000
007FF000
007FF000
007FF000
007FF000
007FF000
007FF000
007FE000
00BFE000
16FFD000
7FFFC000
7FFF4000
7FFF0000
7FFF8000
2BFFD000
00BFE000
007FE000
007FE000
007FF000
007FF000
007FF000
007FE000
007FE000
007FE000
007FF000
003FFF80
002FFFC0
001FFFC0
0007FFC0
0001BF80
ENDCHAR
STARTCHAR bar
ENCODING 124
SWIDTH 217 0
DWIDTH 8 0
BBX 6 37 1 -9
BITMAP
2A40
7FC0
BFD0
BFD0
BFD0
BFD0
BFD0
BFD0
BFD0
BFD0
BFD0
BFD0
BFD0
BFD0
BFD0
BFD0
BFD0
BFD0
BFD0
BFD0
BFD0
BFD0
BFD0
BFD0
BFD0
BFD0
BFD0
BFD0
BFD0
BFD0
BFD0
BFD0
BFD0
BFD0
7FD0
7FC0
0500
ENDCHAR
STARTCHAR braceright
ENCODING 125
SWIDTH 381 0
DWIDTH 14 0
BBX 13 36 0 -8
BITMAP
2A900000
7FF80000
7FFE0000
7FFF4000
3FFF8000
06FFC000
01FFC000
00FFC000
00FFC000
00FFC000
01FFC000
01FFC000
01FFC000
00FFC000
00FFD000
00BFF900
007FFFC0
002FFFC0
001FFFC0
007FFFC0
00BFFE40
00FFD000
00FFC000
00FFC000
01FFC000
01FFC000
00FFC000
00FFC000
00FFC000
00FFC000
01FFC000
2FFF8000
7FFF4000
7FFF0000
7FFD0000
2FE00000
ENDCHAR
STARTCHAR asciitilde
ENCODING 126
SWIDTH 651 0
DWIDTH 23 0
BBX 20 9 1 5
BITMAP
001A900190
01FFFD07F8
07FFFFAFFD
1FFFFFFFFE
3FFFFFFFFC
7FFFFFFFF4
2FF4BFFFD0
0BE01BFE40
0040005000
ENDCHAR
STARTCHAR exclamdown
ENCODING 161
SWIDTH 268 0
DWIDTH 10 0
BBX 8 28 1 -9
BITMAP
0540
2FF8
7FFC
BFFD
BFFD
7FFC
3FF8
0540
0000
0000
1AA4
7FF8
7FFC
7FFC
7FFC
7FFC
7FFC
7FFC
7FFC
7FFC
7FFC
7FFC
7FFC
7FFC
7FFC
7FFC
2FF4
0140
ENDCHAR
STARTCHAR cent
ENCODING 162
SWIDTH 434 0
DWIDTH 16 0
BBX 14 27 1 -3
BITMAP
000BD000
001FE000
001FF000
001FF000
001FF000
001FF000
007FF900
07FFFF80
1FFFFFE0
3FFFFFE0
7FFFFFC0
BFF42F40
FFE00000
FFD00000
FFD00000
FFF00A00
BFFEBF80
7FFFFFD0
1FFFFFE0
0BFFFFD0
01FFFE40
001FF400
001FF000
001FF000
001FF000
001FE000
000BD000
ENDCHAR
STARTCHAR sterling
ENCODING 163
SWIDTH 675 0
DWIDTH 24 0
BBX 24 27 0 0
BITMAP
000000554000
00002FFFF900
0001FFFFFF80
000BFFFFFFF0
001FFFFFFFF8
003FFFFFFFFC
007FFF96FFFC
00BFF8001FF4
00FFF0000640
00FFE0000000
01FFE0000000
05FFE5500000
7FFFFFFD0000
7FFFFFFE0000
7FFFFFFE0000
7FFFFFFD0000
1ABFFEA40000
003FFC000000
002FFC000000
003FFC000000
007FFC000000
00FFFFFFFFE8
02FFFFFFFFFE
03FFFFFFFFFE
03FFFFFFFFFE
02FFFFFFFFFE
00BFFFFFFFF8
ENDCHAR
STARTCHAR currency
ENCODING 164
SWIDTH 677 0
DWIDTH 24 0
BBX 23 28 1 0
BITMAP
1A0000000640
7F8000000FE0
FFD000002FF4
BFFA5556FFF4
7FFFFFFFFFE0
2FFFFFFFFFC0
0BFFFFFFFF40
07FFFFFFFE00
0FFFFFFFFF40
2FFF401BFFC0
3FFC0002FFD0
3FF40000FFD0
7FF40000BFE0
7FF00000BFE0
7FF00000BFE0
7FF40000BFE0
3FF40000FFE0
3FFC0002FFD0
2FFF400BFFC0
1FFFFAFFFF80
0BFFFFFFFF00
0BFFFFFFFF00
2FFFFFFFFF80
7FFFFFFFFFE0
BFFA5556FFF4
FFD000002FF4
BF8000001FE0
1A0000000640
ENDCHAR
STARTCHAR yen
ENCODING 165
SWIDTH 677 0
DWIDTH 24 0
BBX 24 27 0 0
BITMAP
015000000140
0BF400000BF4
3FFC00001FFD
7FFE00003FFE
7FFF0000BFFE
2FFF8001FFFC
0FFFD003FFF4
07FFF00BFFE0
02FFF81FFFC0
00FFFD2FFF40
007FFFBFFE00
002FFFFFFC00
000FFFFFF400
0007FFFFE000
00BFFFFFFE00
00FFFFFFFF40
00FFFFFFFF40
007FFFFFFE00
00003FFD0000
00003FFD0000
006ABFFFAA00
00FFFFFFFF40
00FFFFFFFF80
00BFFFFFFF40
00003FFD0000
00002FFC0000
00001BF40000
ENDCHAR
STARTCHAR brokenbar
ENCODING 166
SWIDTH 215 0
DWIDTH 8 0
BBX 6 36 1 -8
BITMAP
2A40
7FC0
BFD0
BFD0
BFD0
BFD0
BFD0
BFD0
BFD0
BFD0
BFD0
BFD0
BFD0
BFD0
BFD0
7FC0
1500
0000
0000
0500
7FC0
BFD0
BFD0
BFD0
BFD0
BFD0
BFD0
BFD0
BFD0
BFD0
BFD0
BFD0
BFD0
BFD0
7FC0
2F80
ENDCHAR
STARTCHAR section
ENCODING 167
SWIDTH 560 0
DWIDTH 20 0
BBX 19 36 1 -8
BITMAP
0006A90000
00BFFFE400
07FFFFFE00
0FFFFFFF40
2FFFFFFF80
7FFFFFFF40
7FFD07FE00
BFF800B800
BFF8000000
7FFD000000
7FFFE50000
2FFFFFE400
1FFFFFFE00
1FFFFFFF80
3FFFFFFFE0
7FFFFFFFF0
BFFC07FFF0
BFF400FFF4
BFF800FFF4
7FFE01FFF0
3FFFFBFFF0
2FFFFFFFE0
0FFFFFFFC0
02FFFFFFC0
006FFFFFE0
0001BFFFF0
000006FFF4
1A4000FFF4
7FE000FFF4
FFF801FFF0
FFFFABFFE0
BFFFFFFFD0
3FFFFFFF80
1FFFFFFE00
02FFFFF800
006FFE8000
ENDCHAR
STARTCHAR dieresis
ENCODING 168
SWIDTH 489 0
DWIDTH 18 0
BBX 17 7 1 21
BITMAP
1AA002A900
7FF80BFF40
BFFC0BFF80
BFFC0FFF80
BFF80BFF80
7FF407FF40
169001A500
ENDCHAR
STARTCHAR copyright
ENCODING 169
SWIDTH 711 0
DWIDTH 26 0
BBX 24 24 1 3
BITMAP
0001ABEA4000
006FFFFFF800
01FFFFFFFF40
0BFE9556FFC0
1FE400001FF0
3F806FF907F4
7F02FFFF42FC
BE07FFFF80FC
BD1FFEBF40BD
FD2FE00500BE
FC3FC00000BE
FC3F8000007E
FC3FC000007E
FC2FD00000BE
FD2FF41A00BD
BD0FFFFF40FD
7E07FFFF81FC
3F41FFFF42F8
2FC01AE407F4
0FF400006FE0
07FFEAABFF80
01FFFFFFFE00
001BFFFFE400
000056950000
ENDCHAR
STARTCHAR ordfeminine
ENCODING 170
SWIDTH 445 0
DWIDTH 16 0
BBX 14 14 1 12
BITMAP
00690A40
07FFBFD0
1FFFFFE0
3FFFFFE0
BFFFFFE0
FFD0BFE0
FF807FE0
FF407FE0
FFC0BFE0
BFFBFFE0
7FFFFFE0
1FFFFFE0
07FFFFE0
01AE1B80
ENDCHAR
STARTCHAR guillemotleft
ENCODING 171
SWIDTH 668 0
DWIDTH 24 0
BBX 24 19 0 0
BITMAP
000068000190
0001FE000BF8
0007FF402FFD
001FFF80BFFD
007FFF42FFF8
01FFFD0BFFE0
07FFF42FFF80
1FFFD0BFFE00
3FFF41FFF800
7FFD02FFF000
7FFF01FFF800
2FFFC0BFFE00
0BFFF02FFF80
02FFFC0BFFE0
00BFFF02FFF8
002FFF80BFFD
000BFF802FFD
0002FE000BF8
0000780002D0
ENDCHAR
STARTCHAR logicalnot
ENCODING 172
SWIDTH 526 0
DWIDTH 19 0
BBX 19 12 0 4
BITMAP
1BFFFFFF90
7FFFFFFFF4
7FFFFFFFF4
7FFFFFFFF4
7FFFFFFFF4
3FFFFFFFF4
0555556FF4
0000001FF4
0000001FF4
0000001FF4
0000001FF0
0000000550
ENDCHAR
STARTCHAR registered
ENCODING 174
SWIDTH 711 0
DWIDTH 26 0
BBX 24 24 1 3
BITMAP
0001ABEA4000
006FFFFFF800
01FFFFFFFF40
0BFE9556FFC0
1FE455401FF0
3F82FFF907F4
7F03FFFF42FC
BE03FFFFC0FC
BD03FD7FD0BD
FD03F81FD0BE
FC03F81FD0BE
FC03FFFFD07E
FC03FFFF807E
FC03FFFF40BE
FD03FEFF80BD
BD03F83FC0FD
7E03F81FE1FC
3F43F80FD2F8
2FC050064BF4
0FF400006FE0
07FFEAABFF80
01FFFFFFFE00
001BFFFFE400
000056950000
ENDCHAR
STARTCHAR degree
ENCODING 176
SWIDTH 407 0
DWIDTH 15 0
BBX 13 14 1 14
BITMAP
006A4000
07FFE000
1FFFFC00
7FFFFE00
BFEBFF40
FF80BF80
FF007F80
FF00BF80
FF81FF80
BFFFFF40
3FFFFE00
1FFFF800
02FFD000
00150000
ENDCHAR
STARTCHAR plusminus
ENCODING 177
SWIDTH 505 0
DWIDTH 18 0
BBX 17 20 1 0
BITMAP
0006900000
001FF80000
002FF80000
002FF80000
1AAFFEA400
BFFFFFFF00
FFFFFFFF40
FFFFFFFF40
FFFFFFFF00
6FFFFFF900
002FF80000
002FF80000
001FF80000
0006900000
0000000000
2FFFFFF800
7FFFFFFE00
BFFFFFFE00
BFFFFFFE00
2FFFFFFD00
ENDCHAR
STARTCHAR twosuperior
ENCODING 178
SWIDTH 455 0
DWIDTH 16 0
BBX 15 20 1 7
BITMAP
00BFE000
07FFFD00
1FFFFF40
3FFFFFD0
BFFFFFE0
FFF5BFF0
FFD07FF0
FFD07FF0
FFC0BFF0
6A42FFE0
001FFFD0
01BFFF40
0BFFFD00
2FFFF400
BFFFFFF4
FFFFFFF8
FFFFFFF8
FFFFFFF8
7FFFFFF4
01555540
ENDCHAR
STARTCHAR threesuperior
ENCODING 179
SWIDTH 457 0
DWIDTH 16 0
BBX 15 20 1 7
BITMAP
00AFE400
07FFFE00
1FFFFFC0
3FFFFFE0
7FFFFFF0
3FE07FF0
1FD03FF0
0141BFF0
002FFFD0
003FFF80
002FFFE0
151ABFF4
BFC02FF4
FFD02FF8
FFF5BFF4
BFFFFFF0
3FFFFFD0
1FFFFF80
02FFFD00
00155000
ENDCHAR
STARTCHAR acute
ENCODING 180
SWIDTH 605 0
DWIDTH 22 0
BBX 11 8 5 20
BITMAP
0005A0
01BFF4
2FFFF8
7FFFFC
7FFFF8
7FFF90
2FE400
050000
ENDCHAR
STARTCHAR mu
ENCODING 181
SWIDTH 601 0
DWIDTH 22 0
BBX 20 27 1 -8
BITMAP
2FE0001FF4
7FF4003FFC
BFF8003FFD
BFF8003FFD
BFF8003FFD
BFF8003FFD
BFF8003FFD
BFF8003FFD
BFF8003FFD
BFF8003FFD
BFFC007FFD
BFFD00BFFD
BFFFABFFFD
BFFFFFFFFD
BFFFFFFFFD
BFFFFFFFFD
BFFFFFFFFD
BFFFFF6FFC
BFF9A80AA4
BFF8000000
BFF8000000
BFF8000000
BFF8000000
BFF8000000
BFF8000000
7FF4000000
2FE0000000
ENDCHAR
STARTCHAR paragraph
ENCODING 182
SWIDTH 614 0
DWIDTH 22 0
BBX 19 31 1 -9
BITMAP
06FFFFFFF4
2FFFFFFFFC
7FFFFFFFFC
BFFFFEAFFC
FFFFFD0FFC
FFFFFD0FFC
FFFFFD0FFC
FFFFFD0FFC
BFFFFD0FFC
7FFFFD0FFC
3FFFFD0FFC
0BFFFD0FFC
005BFD0FFC
000BFD0FFC
000BFD0FFC
000BFD0FFC
000BFD0FFC
000BFD0FFC
000BFD0FFC
000BFD0FFC
000BFD0FFC
000BFD0FFC
000BFD0FFC
000BFD0FFC
000BFD0FFC
000BFD0FFC
000BFD0FFC
0007FD0FFC
0007FD0BFC
0003FC0BF8
0000500150
ENDCHAR
STARTCHAR periodcentered
ENCODING 183
SWIDTH 237 0
DWIDTH 9 0
BBX 7 8 1 7
BITMAP
1540
BFF4
FFF8
FFF8
FFF8
FFF4
7FF0
0540
ENDCHAR
STARTCHAR cedilla
ENCODING 184
SWIDTH 559 0
DWIDTH 20 0
BBX 8 8 6 -7
BITMAP
2FD0
BFF8
7FFC
14FD
29FD
7FFC
7FF4
1B90
ENDCHAR
STARTCHAR onesuperior
ENCODING 185
SWIDTH 321 0
DWIDTH 12 0
BBX 10 20 0 7
BITMAP
000A90
002FF0
00FFF0
07FFF0
1FFFF0
3FFFF0
7FFFF0
3FFFF0
1FFFF0
017FF0
007FF0
007FF0
007FF0
007FF0
007FF0
007FF0
007FF0
003FF0
002FE0
000100
ENDCHAR
STARTCHAR ordmasculine
ENCODING 186
SWIDTH 439 0
DWIDTH 16 0
BBX 14 15 1 11
BITMAP
00154000
02FFF800
0FFFFE00
2FFFFF80
7FFFFFD0
BFD0BFE0
FF802FE0
FF402FF0
FF803FE0
BFE1BFE0
7FFFFFD0
2FFFFF80
0BFFFE00
01FFF400
00154000
ENDCHAR
STARTCHAR guillemotright
ENCODING 187
SWIDTH 669 0
DWIDTH 24 0
BBX 24 19 0 0
BITMAP
064000190000
1FE000BF4000
7FF801FFD000
7FFE02FFF400
2FFF80FFFD00
0BFFE07FFF40
02FFF80FFFD0
00BFFE03FFF4
002FFF40FFFD
000FFF807FFE
002FFF80BFFD
00BFFE02FFF8
02FFF80BFFE0
0BFFE02FFF80
2FFF80BFFE00
7FFE02FFF800
7FF801FFE000
2FE000BF8000
0780002D0000
ENDCHAR
STARTCHAR onequarter
ENCODING 188
SWIDTH 786 0
DWIDTH 28 0
BBX 24 29 2 -1
BITMAP
00640000B800
02FD0000FD00
0BFD0002FC00
2FFD0003F400
FFFD000BF000
FFFD001FD000
BFFD002F8000
16FD007F4000
02FD00BE0000
02FD01FD0000
02FD02F80000
02FD07F40000
02FD0FE00000
02FD1FC3F4BE
02FD3F87F8FF
00547F0BF8FF
0000FE0FF4FF
0002FC0FF4FF
0003F41FF0FF
000BF02FE5FF
000FD02FFFFF
002FC03FFFFF
007F403FFFFF
00BE001AAAFF
01FD000000FF
02F8000000FF
07F4000000FF
0BE00000007E
06C000000000
ENDCHAR
STARTCHAR onehalf
ENCODING 189
SWIDTH 804 0
DWIDTH 29 0
BBX 25 29 2 -1
BITMAP
00640000B80000
02FD0000FD0000
0BFD0002FC0000
2FFD0003F40000
FFFD000BF00000
FFFD001FD00000
BFFD002F800000
16FD007F400000
02FD00BE000000
02FD01FD000000
02FD02F8000000
02FD07F4000000
02FD0FE0050000
02FD1FC1FFD000
02FD3F87FFF800
00547F1FFFFD00
0000FE2FFFFF00
0002FC3FE1FF00
0003F43FC0FF40
000BF03FC2FF00
000FD0050BFE00
002FC0007FFD00
007F4002FFF400
00BE000FFFD400
01FD002FFFFF40
02F8003FFFFF80
07F4003FFFFF80
0BE0001BFFFF40
06C00000000000
ENDCHAR
STARTCHAR threequarters
ENCODING 190
SWIDTH 842 0
DWIDTH 30 0
BBX 26 29 2 -1
BITMAP
01A90000078000
0BFFD0000FD000
2FFFF4002FC000
7FFFF8003F4000
7F9BFC00BF0000
2F03FC01FD0000
045BF802F80000
00FFF007F40000
00FFF80BE00000
686BFC1FD00000
FE02FD2F800000
FF47FD7F400000
BFFFFCFE000000
7FFFF5FC3F4BE0
1FFFE3F87F8FF0
01AA07F0BF8FF0
00000FE0BF4FF0
00002FC0FF4FF0
00003F41FF0FF0
0000BF02FE5FF0
0000FD02FFFFF0
0002FC03FFFFF0
0007F403FFFFF0
000BE001AAAFF0
001FD000000FF0
002F8000000FF0
007F4000000FF0
00BE00000007E0
006D0000000000
ENDCHAR
STARTCHAR questiondown
ENCODING 191
SWIDTH 511 0
DWIDTH 18 0
BBX 17 27 1 -8
BITMAP
001BF80000
002FFD0000
003FFE0000
003FFE0000
003FFE0000
002FFD0000
0006A40000
0000000000
0000000000
0006A40000
001FFC0000
002FFC0000
01FFFC0000
0BFFFC0000
2FFFF40000
7FFFD00000
BFFD000000
FFF0005000
FFE001FE00
FFE003FF80
FFF40BFF80
BFFFBFFF80
7FFFFFFF00
2FFFFFFD00
0BFFFFF800
02FFFFD000
002BF90000
ENDCHAR
STARTCHAR Agrave
ENCODING 192
SWIDTH 765 0
DWIDTH 28 0
BBX 27 36 0 -1
BITMAP
00002400000000
0000BF90000000
0001FFFF800000
0001FFFFF00000
0001FFFFF00000
00006FFFF00000
000001BFD00000
00000006800000
00000014000000
000001FE000000
000003FF800000
00000BFFC00000
00000FFFE00000
00002FFFF00000
00003FFFF80000
0000BFFFFC0000
0000FFFFFE0000
0002FFFFFF0000
0003FFFFFF8000
0007FFEFFFC000
000FFFCBFFE000
001FFF83FFF000
003FFF02FFF400
007FFE00FFFC00
00FFFFFFFFFD00
01FFFFFFFFFF00
03FFFFFFFFFF40
07FFFFFFFFFFC0
0FFFFFFFFFFFD0
1FFF955557FFF0
2FFF400002FFF4
7FFE000001FFF8
7FFD000000BFFC
3FF80000007FF8
0BF40000002FD0
00400000000500
ENDCHAR
STARTCHAR Aacute
ENCODING 193
SWIDTH 765 0
DWIDTH 28 0
BBX 27 36 0 -1
BITMAP
00000001BC0000
0000006FFE0000
00000BFFFF0000
00001FFFFF0000
00001FFFFE0000
00000FFFE40000
00000BE5000000
00000100000000
00000014000000
000001FE000000
000003FF800000
00000BFFC00000
00000FFFE00000
00002FFFF00000
00003FFFF80000
0000BFFFFC0000
0000FFFFFE0000
0002FFFFFF0000
0003FFFFFF8000
0007FFEFFFC000
000FFFCBFFE000
001FFF83FFF000
003FFF02FFF400
007FFE00FFFC00
00FFFFFFFFFD00
01FFFFFFFFFF00
03FFFFFFFFFF40
07FFFFFFFFFFC0
0FFFFFFFFFFFD0
1FFF955557FFF0
2FFF400002FFF4
7FFE000001FFF8
7FFD000000BFFC
3FF80000007FF8
0BF40000002FD0
00400000000500
ENDCHAR
STARTCHAR Acircumflex
ENCODING 194
SWIDTH 765 0
DWIDTH 28 0
BBX 27 36 0 -1
BITMAP
000001BE400000
00006FFFF90000
0003FFFFFF8000
0007FFFFFFC000
0003FFFFFF8000
0002FF96FF4000
0000A400690000
00000000000000
00000014000000
000001FE000000
000003FF800000
00000BFFC00000
00000FFFE00000
00002FFFF00000
00003FFFF80000
0000BFFFFC0000
0000FFFFFE0000
0002FFFFFF0000
0003FFFFFF8000
0007FFEFFFC000
000FFFCBFFE000
001FFF83FFF000
003FFF02FFF400
007FFE00FFFC00
00FFFFFFFFFD00
01FFFFFFFFFF00
03FFFFFFFFFF40
07FFFFFFFFFFC0
0FFFFFFFFFFFD0
1FFF955557FFF0
2FFF400002FFF4
7FFE000001FFF8
7FFD000000BFFC
3FF80000007FF8
0BF40000002FD0
00400000000500
ENDCHAR
STARTCHAR Atilde
ENCODING 195
SWIDTH 765 0
DWIDTH 28 0
BBX 27 36 0 -1
BITMAP
00002FE02E0000
0000BFFDBF8000
0002FFFFFFC000
0007FFFFFF4000
0007FEFFFE0000
0002F42FF80000
00005005500000
00000000000000
00000014000000
000001FE000000
000003FF800000
00000BFFC00000
00000FFFE00000
00002FFFF00000
00003FFFF80000
0000BFFFFC0000
0000FFFFFE0000
0002FFFFFF0000
0003FFFFFF8000
0007FFEFFFC000
000FFFCBFFE000
001FFF83FFF000
003FFF02FFF400
007FFE00FFFC00
00FFFFFFFFFD00
01FFFFFFFFFF00
03FFFFFFFFFF40
07FFFFFFFFFFC0
0FFFFFFFFFFFD0
1FFF955557FFF0
2FFF400002FFF4
7FFE000001FFF8
7FFD000000BFFC
3FF80000007FF8
0BF40000002FD0
00400000000500
ENDCHAR
STARTCHAR Adieresis
ENCODING 196
SWIDTH 765 0
DWIDTH 28 0
BBX 27 36 0 -1
BITMAP
0007FD00BF9000
000FFF01FFE000
000FFF41FFF000
001FFF41FFF000
000FFF01FFF000
000BFE00FFD000
00015400150000
00000000000000
00000014000000
000001FE000000
000003FF800000
00000BFFC00000
00000FFFE00000
00002FFFF00000
00003FFFF80000
0000BFFFFC0000
0000FFFFFE0000
0002FFFFFF0000
0003FFFFFF8000
0007FFEFFFC000
000FFFCBFFE000
001FFF83FFF000
003FFF02FFF400
007FFE00FFFC00
00FFFFFFFFFD00
01FFFFFFFFFF00
03FFFFFFFFFF40
07FFFFFFFFFFC0
0FFFFFFFFFFFD0
1FFF955557FFF0
2FFF400002FFF4
7FFE000001FFF8
7FFD000000BFFC
3FF80000007FF8
0BF40000002FD0
00400000000500
ENDCHAR
STARTCHAR Aring
ENCODING 197
SWIDTH 765 0
DWIDTH 28 0
BBX 27 34 0 -1
BITMAP
000001FE400000
00000BFFD00000
00001F9BF00000
00002F01F40000
00003E00F40000
00002E01F40000
00001F97F00000
00000BFFD00000
000007FF800000
00000BFFC00000
00000FFFE00000
00002FFFF00000
00003FFFF80000
0000BFFFFC0000
0000FFFFFE0000
0002FFFFFF0000
0003FFFFFF8000
0007FFEFFFC000
000FFFCBFFE000
001FFF83FFF000
003FFF02FFF400
007FFE00FFFC00
00FFFFFFFFFD00
01FFFFFFFFFF00
03FFFFFFFFFF40
07FFFFFFFFFFC0
0BFFFFFFFFFFD0
1FFF955557FFF0
2FFF400002FFF4
7FFE000001FFF8
7FFD000000BFFC
3FF80000007FF8
0BF40000002FD0
00400000000500
ENDCHAR
STARTCHAR AE
ENCODING 198
SWIDTH 1148 0
DWIDTH 41 0
BBX 41 28 0 -1
BITMAP
0000000000555555555400
0000000002FFFFFFFFFF00
000000000BFFFFFFFFFF40
000000001FFFFFFFFFFF40
000000007FFFFFFFFFFF40
00000001FFFFFFFFFFFF40
00000007FFFFFFFFFFFD00
0000000FFFFFF400000000
0000003FFFFFF400000000
000000BFFFFFF400000000
000002FFFFFFF955540000
00000BFFF9FFFFFFFF0000
00002FFFF0FFFFFFFF4000
0000BFFFC0FFFFFFFF4000
0001FFFF40FFFFFFFF4000
0007FFFD00FFFFFFFF4000
001FFFFEAAFFFFFFFD0000
007FFFFFFFFFF400000000
00FFFFFFFFFFF400000000
03FFFFFFFFFFF400000000
0BFFFFFFFFFFF955555400
2FFFEAAAAAFFFFFFFFFF00
BFFF800000FFFFFFFFFF40
FFFF000000FFFFFFFFFF40
BFFC000000FFFFFFFFFF40
7FF4000000BFFFFFFFFF00
1FD00000001FFFFFFFFD00
0100000000000000000000
ENDCHAR
STARTCHAR Ccedilla
ENCODING 199
SWIDTH 679 0
DWIDTH 24 0
BBX 23 34 1 -7
BITMAP
000006AA4000
0001BFFFF900
000BFFFFFF80
007FFFFFFFF0
01FFFFFFFFF4
07FFFFFFFFF4
0FFFFFABFFF0
2FFFF4007FD0
3FFF80000640
7FFE00000000
BFFC00000000
FFF800000000
FFF400000000
FFF400000000
FFF400000000
FFF400000000
BFF800000000
BFFD00000000
7FFF00000000
3FFFD0001F80
1FFFF901BFD0
0BFFFFFFFFF0
03FFFFFFFFF4
00BFFFFFFFF4
002FFFFFFFE0
0006FFFFFE40
00006FFFE400
00000BFF0000
00000BFF8000
0000026FC000
0000015FC000
00000BFF8000
00000BFF0000
000002F80000
ENDCHAR
STARTCHAR Egrave
ENCODING 200
SWIDTH 638 0
DWIDTH 23 0
BBX 21 35 1 0
BITMAP
000140000000
000BFE400000
000FFFF90000
001FFFFF4000
000FFFFF4000
0006FFFF0000
00001BFE0000
000000680000
055555555500
3FFFFFFFFF80
7FFFFFFFFFC0
BFFFFFFFFFC0
BFFFFFFFFFC0
BFFFFFFFFF80
BFFFFFFFFE40
BFF800000000
BFF800000000
BFF800000000
BFFD55550000
BFFFFFFF8000
BFFFFFFFC000
BFFFFFFFC000
BFFFFFFFC000
BFFFFFFFC000
BFFFFFFE4000
BFF800000000
BFF800000000
BFF800000000
BFFD55555500
BFFFFFFFFF80
BFFFFFFFFFC0
BFFFFFFFFFC0
BFFFFFFFFFC0
7FFFFFFFFF80
2FFFFFFFFE40
ENDCHAR
STARTCHAR Eacute
ENCODING 201
SWIDTH 638 0
DWIDTH 23 0
BBX 21 35 1 0
BITMAP
0000006E0000
00006BFF4000
0007FFFF8000
000BFFFF8000
000BFFFF4000
0007FFE40000
0002F9000000
000040000000
055555555500
3FFFFFFFFF80
7FFFFFFFFFC0
BFFFFFFFFFC0
BFFFFFFFFFC0
BFFFFFFFFF80
BFFFFFFFFE40
BFF800000000
BFF800000000
BFF800000000
BFFD55550000
BFFFFFFF8000
BFFFFFFFC000
BFFFFFFFC000
BFFFFFFFC000
BFFFFFFFC000
BFFFFFFE4000
BFF800000000
BFF800000000
BFF800000000
BFFD55555500
BFFFFFFFFF80
BFFFFFFFFFC0
BFFFFFFFFFC0
BFFFFFFFFFC0
7FFFFFFFFF80
2FFFFFFFFE40
ENDCHAR
STARTCHAR Ecircumflex
ENCODING 202
SWIDTH 638 0
DWIDTH 23 0
BBX 21 35 1 0
BITMAP
00006F900000
001BFFFE4000
01FFFFFFD000
02FFFFFFE000
01FFFFFFE000
00BFE1FFC000
0029001A4000
000000000000
055555555500
3FFFFFFFFF80
7FFFFFFFFFC0
BFFFFFFFFFC0
BFFFFFFFFFC0
BFFFFFFFFF80
BFFFFFFFFE40
BFF800000000
BFF800000000
BFF800000000
BFFD55550000
BFFFFFFF8000
BFFFFFFFC000
BFFFFFFFC000
BFFFFFFFC000
BFFFFFFFC000
BFFFFFFE4000
BFF800000000
BFF800000000
BFF800000000
BFFD55555500
BFFFFFFFFF80
BFFFFFFFFFC0
BFFFFFFFFFC0
BFFFFFFFFFC0
7FFFFFFFFF80
2FFFFFFFFE40
ENDCHAR
STARTCHAR Edieresis
ENCODING 203
SWIDTH 638 0
DWIDTH 23 0
BBX 21 35 1 0
BITMAP
01FF402FE400
03FFC07FF800
07FFD07FFC00
07FFD07FFC00
03FFC07FFC00
02FF803FF400
005500054000
000000000000
055555555500
3FFFFFFFFF80
7FFFFFFFFFC0
BFFFFFFFFFC0
BFFFFFFFFFC0
BFFFFFFFFF80
BFFFFFFFFE40
BFF800000000
BFF800000000
BFF800000000
BFFD55550000
BFFFFFFF8000
BFFFFFFFC000
BFFFFFFFC000
BFFFFFFFC000
BFFFFFFFC000
BFFFFFFE4000
BFF800000000
BFF800000000
BFF800000000
BFFD55555500
BFFFFFFFFF80
BFFFFFFFFFC0
BFFFFFFFFFC0
BFFFFFFFFFC0
7FFFFFFFFF80
2FFFFFFFFE40
ENDCHAR
STARTCHAR Igrave
ENCODING 204
SWIDTH 267 0
DWIDTH 10 0
BBX 11 35 -2 0
BITMAP
190000
3FE400
7FFF90
BFFFF8
BFFFF8
2FFFF8
01BFF4
000190
001500
00FFD0
01FFF0
01FFF0
01FFF0
01FFF0
01FFF0
01FFF0
01FFF0
01FFF0
01FFF0
01FFF0
01FFF0
01FFF0
01FFF0
01FFF0
01FFF0
01FFF0
01FFF0
01FFF0
01FFF0
01FFF0
01FFF0
01FFF0
01FFF0
01FFE0
007F90
ENDCHAR
STARTCHAR Iacute
ENCODING 205
SWIDTH 269 0
DWIDTH 10 0
BBX 11 35 1 0
BITMAP
001BD0
06FFF0
BFFFF4
FFFFF4
FFFFF0
BFFE40
7F9000
140000
054000
2FF800
7FFC00
7FFC00
7FFC00
7FFC00
7FFC00
7FFC00
7FFC00
7FFC00
7FFC00
7FFC00
7FFC00
7FFC00
7FFC00
7FFC00
7FFC00
7FFC00
7FFC00
7FFC00
7FFC00
7FFC00
7FFC00
7FFC00
7FFC00
3FF800
1FE400
ENDCHAR
STARTCHAR Icircumflex
ENCODING 206
SWIDTH 270 0
DWIDTH 10 0
BBX 15 35 -3 0
BITMAP
001BE400
06FFFF90
3FFFFFF8
7FFFFFFC
3FFFFFF8
2FF96FF4
06400690
00000000
00054000
002FF800
007FFC00
007FFC00
007FFC00
007FFC00
007FFC00
007FFC00
007FFC00
007FFC00
007FFC00
007FFC00
007FFC00
007FFC00
007FFC00
007FFC00
007FFC00
007FFC00
007FFC00
007FFC00
007FFC00
007FFC00
007FFC00
007FFC00
007FFC00
003FF800
001FE400
ENDCHAR
STARTCHAR Idieresis
ENCODING 207
SWIDTH 268 0
DWIDTH 10 0
BBX 16 35 -3 0
BITMAP
7FD00BF9
FFF01FFE
FFF41FFF
FFF41FFF
FFF41FFF
BFE00FFE
15400154
00000000
00055000
002FF800
007FFC00
007FFC00
007FFC00
007FFC00
007FFC00
007FFC00
007FFC00
007FFC00
007FFC00
007FFC00
007FFC00
007FFC00
007FFC00
007FFC00
007FFC00
007FFC00
007FFC00
007FFC00
007FFC00
007FFC00
007FFC00
007FFC00
007FFC00
003FFC00
001FE400
ENDCHAR
STARTCHAR Eth
ENCODING 208
SWIDTH 775 0
DWIDTH 28 0
BBX 26 27 1 0
BITMAP
00555554000000
02FFFFFFA00000
03FFFFFFFE0000
03FFFFFFFF8000
03FFFFFFFFF400
03FFFFFFFFFC00
03FFFFFFFFFE00
03FFD006FFFF40
03FFD0002FFFC0
03FFD0000FFFD0
03FFD00007FFE0
6BFFE90002FFE0
FFFFFF4002FFF0
FFFFFF4001FFF0
FFFFFF4001FFF0
BFFFFF0002FFE0
03FFD00003FFE0
03FFD00007FFD0
03FFD0001FFFC0
03FFD000BFFF80
03FFE55BFFFF00
03FFFFFFFFFD00
03FFFFFFFFF800
03FFFFFFFFE000
03FFFFFFFF4000
02FFFFFFF80000
01BFFFFA400000
ENDCHAR
STARTCHAR Ntilde
ENCODING 209
SWIDTH 720 0
DWIDTH 26 0
BBX 24 35 1 0
BITMAP
0001BE41E000
000BFFD7FC00
002FFFFFFC00
003FFFFFF800
003FEFFFF000
001F82FF8000
000100550000
000000000000
054000000150
3FF400001FFC
7FFD00002FFD
BFFF00003FFD
BFFF80003FFD
BFFFD0003FFD
BFFFF4003FFD
BFFFF8003FFD
BFFFFE003FFD
BFFFFF403FFD
BFFFFFC03FFD
BFFFFFE03FFD
BFFAFFF83FFD
BFF8FFFD3FFD
BFF87FFF3FFD
BFF82FFFBFFD
BFF80BFFFFFD
BFF803FFFFFD
BFF801FFFFFD
BFF800BFFFFD
BFF8002FFFFD
BFF8000FFFFD
BFF80007FFFD
BFF80002FFFD
BFF80000BFFD
7FF800003FFD
2FE000001BF8
ENDCHAR
STARTCHAR Ograve
ENCODING 210
SWIDTH 775 0
DWIDTH 28 0
BBX 26 36 1 -1
BITMAP
00005400000000
0001FF90000000
0003FFFE400000
0003FFFFD00000
0003FFFFD00000
0001BFFFD00000
000006FF800000
0000001A400000
000016A9000000
0001FFFFF40000
001FFFFFFE4000
007FFFFFFFD000
01FFFFFFFFF400
07FFFFFFFFFD00
0FFFFFAFFFFF00
2FFFE401BFFF80
3FFF80002FFFC0
7FFE00000BFFD0
BFFC000003FFE0
FFF8000002FFE0
FFF4000002FFF0
FFF4000001FFF0
FFF4000001FFF0
FFF4000002FFF0
FFF8000002FFE0
BFFD000007FFD0
7FFE00000FFFD0
3FFF80002FFF80
1FFFF401FFFF40
0BFFFFFFFFFE00
03FFFFFFFFFC00
01FFFFFFFFF400
007FFFFFFFC000
000BFFFFFE0000
0001BFFFE40000
00000555000000
ENDCHAR
STARTCHAR Oacute
ENCODING 211
SWIDTH 775 0
DWIDTH 28 0
BBX 26 36 1 -1
BITMAP
00000006F00000
000001BFF80000
00002FFFFC0000
0000BFFFFC0000
00007FFFF80000
00003FFE400000
00002F90000000
00000400000000
000016A9000000
0001FFFFF40000
001FFFFFFE4000
007FFFFFFFD000
01FFFFFFFFF400
07FFFFFFFFFD00
0FFFFFAFFFFF00
2FFFE401BFFF80
3FFF80002FFFC0
7FFE00000BFFD0
BFFC000003FFE0
FFF8000002FFE0
FFF4000002FFF0
FFF4000001FFF0
FFF4000001FFF0
FFF4000002FFF0
FFF8000002FFE0
BFFD000007FFD0
7FFE00000FFFD0
3FFF80002FFF80
1FFFF401FFFF40
0BFFFFFFFFFE00
03FFFFFFFFFC00
01FFFFFFFFF400
007FFFFFFFC000
000BFFFFFE0000
0001BFFFE40000
00000555000000
ENDCHAR
STARTCHAR Ocircumflex
ENCODING 212
SWIDTH 775 0
DWIDTH 28 0
BBX 26 36 1 -1
BITMAP
000006F9000000
0001BFFFE40000
000BFFFFFE0000
000FFFFFFF0000
000FFFFFFF0000
0007FE5BFD0000
0001A000A80000
00000000000000
000016A9000000
0001FFFFF40000
001FFFFFFE4000
007FFFFFFFD000
01FFFFFFFFF400
07FFFFFFFFFD00
0FFFFFAFFFFF00
2FFFE401BFFF80
3FFF80002FFFC0
7FFE00000BFFD0
BFFC000003FFE0
FFF8000002FFE0
FFF4000002FFF0
FFF4000001FFF0
FFF4000001FFF0
FFF4000002FFF0
FFF8000002FFE0
BFFD000007FFD0
7FFE00000FFFD0
3FFF80002FFF80
1FFFF401FFFF40
0BFFFFFFFFFE00
03FFFFFFFFFC00
01FFFFFFFFF400
007FFFFFFFC000
000BFFFFFE0000
0001BFFFE40000
00000555000000
ENDCHAR
STARTCHAR Otilde
ENCODING 213
SWIDTH 775 0
DWIDTH 28 0
BBX 26 36 1 -1
BITMAP
00002FE02E0000
0000FFFDBF8000
0002FFFFFFC000
0007FFFFFF4000
0007FEFFFE0000
0002F42FF80000
00005005500000
00000000000000
000016A9000000
0001FFFFF40000
001FFFFFFE4000
007FFFFFFFD000
01FFFFFFFFF400
07FFFFFFFFFD00
0FFFFFAFFFFF00
2FFFE401BFFF80
3FFF80002FFFC0
7FFE00000BFFD0
BFFC000003FFE0
FFF8000002FFE0
FFF4000002FFF0
FFF4000001FFF0
FFF4000001FFF0
FFF4000002FFF0
FFF8000002FFE0
BFFD000007FFD0
7FFE00000FFFD0
3FFF80002FFF80
1FFFF401FFFF40
0BFFFFFFFFFE00
03FFFFFFFFFC00
01FFFFFFFFF400
007FFFFFFFC000
000BFFFFFE0000
0001BFFFE40000
00000555000000
ENDCHAR
STARTCHAR Odieresis
ENCODING 214
SWIDTH 775 0
DWIDTH 28 0
BBX 26 36 1 -1
BITMAP
001FF402FE0000
003FFC07FF8000
007FFC0BFFC000
007FFC0BFFC000
007FFC07FF8000
002FF803FF4000
00055000540000
00000000000000
000016A9000000
0001FFFFF40000
001FFFFFFE4000
007FFFFFFFD000
01FFFFFFFFF400
07FFFFFFFFFD00
0FFFFFAFFFFF00
2FFFE401BFFF80
3FFF80002FFFC0
7FFE00000BFFD0
BFFC000003FFE0
FFF8000002FFE0
FFF4000002FFF0
FFF4000001FFF0
FFF4000001FFF0
FFF4000002FFF0
FFF8000002FFE0
BFFD000007FFD0
7FFE00000FFFD0
3FFF80002FFF80
1FFFF401FFFF40
0BFFFFFFFFFE00
03FFFFFFFFFC00
01FFFFFFFFF400
007FFFFFFFC000
000BFFFFFE0000
0001BFFFE40000
00000555000000
ENDCHAR
STARTCHAR multiply
ENCODING 215
SWIDTH 521 0
DWIDTH 19 0
BBX 17 17 1 1
BITMAP
1B4000B800
7FD002FF00
FFF40BFF80
FFFD2FFF80
7FFFBFFF40
2FFFFFFD00
0BFFFFF400
02FFFFD000
00FFFF8000
02FFFFD000
0BFFFFF400
2FFFFFFD00
BFFFBFFF40
FFFD2FFF80
FFF40BFF80
7FD002FF00
1A40007800
ENDCHAR
STARTCHAR Oslash
ENCODING 216
SWIDTH 775 0
DWIDTH 28 0
BBX 26 30 1 -2
BITMAP
000000003F4000
000016A9BFE000
0001FFFFFFF000
001FFFFFFFF000
007FFFFFFFE000
01FFFFFFFFF400
07FFFFFFFFFD00
0FFFFFBFFFFF00
2FFFE43FFFFF80
3FFF807FFFFFC0
7FFE00FFFFFFD0
BFFC01FFF7FFE0
FFF803FFE2FFE0
FFF407FFD2FFF0
FFF40FFF81FFF0
FFF41FFF41FFF0
FFF42FFE02FFF0
FFF87FFD02FFE0
BFFDBFF807FFD0
7FFFFFF40FFFD0
3FFFFFE02FFF80
1FFFFFD2FFFF40
0BFFFFFFFFFE00
07FFFFFFFFFC00
01FFFFFFFFF400
007FFFFFFFC000
007FFFFFFE0000
00BFFFFFE40000
007FF555000000
000BD000000000
ENDCHAR
STARTCHAR Ugrave
ENCODING 217
SWIDTH 726 0
DWIDTH 26 0
BBX 24 36 1 -1
BITMAP
000500000000
002FF9000000
003FFFE40000
007FFFFD0000
007FFFFD0000
001BFFFC0000
00006FF80000
000001A00000
054000000150
3FF400001FFD
7FF800002FFE
BFF800002FFE
BFFC00002FFE
BFFC00002FFE
BFFC00002FFE
BFFC00002FFE
BFFC00002FFE
BFFC00002FFE
BFFC00002FFE
BFFC00002FFE
BFFC00002FFE
BFFC00002FFE
BFFC00002FFE
7FFC00002FFE
7FFC00003FFE
7FFD00007FFD
3FFE0000BFFC
2FFF4001FFFC
1FFFE40BFFF4
0BFFFFFFFFF0
03FFFFFFFFD0
01FFFFFFFF80
007FFFFFFE00
001FFFFFF400
0001FFFF8000
000005540000
ENDCHAR
STARTCHAR Uacute
ENCODING 218
SWIDTH 726 0
DWIDTH 26 0
BBX 24 36 1 -1
BITMAP
00000006F000
000001BFF800
00002FFFFC00
0000BFFFFC00
00007FFFF800
00003FFE4000
00002F900000
000004000000
054000000150
3FF400001FFD
7FF800002FFE
BFF800002FFE
BFFC00002FFE
BFFC00002FFE
BFFC00002FFE
BFFC00002FFE
BFFC00002FFE
BFFC00002FFE
BFFC00002FFE
BFFC00002FFE
BFFC00002FFE
BFFC00002FFE
BFFC00002FFE
7FFC00002FFE
7FFC00003FFE
7FFD00007FFD
3FFE0000BFFC
2FFF4001FFFC
1FFFE40BFFF4
0BFFFFFFFFF0
03FFFFFFFFD0
01FFFFFFFF80
007FFFFFFE00
001FFFFFF400
0001FFFF8000
000005540000
ENDCHAR
STARTCHAR Ucircumflex
ENCODING 219
SWIDTH 726 0
DWIDTH 26 0
BBX 24 36 1 -1
BITMAP
000006F90000
0001BFFFE400
001FFFFFFD00
002FFFFFFE00
001FFFFFFD00
000FFE1FFC00
00029001A400
000000000000
054000000150
3FF400001FFD
7FF800002FFE
BFF800002FFE
BFFC00002FFE
BFFC00002FFE
BFFC00002FFE
BFFC00002FFE
BFFC00002FFE
BFFC00002FFE
BFFC00002FFE
BFFC00002FFE
BFFC00002FFE
BFFC00002FFE
BFFC00002FFE
7FFC00002FFE
7FFC00003FFE
7FFD00007FFD
3FFE0000BFFC
2FFF4001FFFC
1FFFE40BFFF4
0BFFFFFFFFF0
03FFFFFFFFD0
01FFFFFFFF80
007FFFFFFE00
001FFFFFF400
0001FFFF8000
000005540000
ENDCHAR
STARTCHAR Udieresis
ENCODING 220
SWIDTH 726 0
DWIDTH 26 0
BBX 24 36 1 -1
BITMAP
006FE007FD00
00BFF40FFF00
00FFF41FFF00
00FFF41FFF00
00FFF41FFF00
007FF00BFE00
001540015400
000000000000
054000000150
3FF400001FFD
7FF800002FFE
BFF800002FFE
BFFC00002FFE
BFFC00002FFE
BFFC00002FFE
BFFC00002FFE
BFFC00002FFE
BFFC00002FFE
BFFC00002FFE
BFFC00002FFE
BFFC00002FFE
BFFC00002FFE
BFFC00002FFE
7FFC00002FFE
7FFC00003FFE
7FFD00007FFD
3FFE0000BFFC
2FFF4001FFFC
1FFFE40BFFF4
0BFFFFFFFFF0
03FFFFFFFFD0
01FFFFFFFF80
007FFFFFFE00
001FFFFFF400
0001FFFF8000
000005540000
ENDCHAR
STARTCHAR Yacute
ENCODING 221
SWIDTH 686 0
DWIDTH 25 0
BBX 24 35 0 0
BITMAP
0000001BD000
000006FFE000
0000BFFFF000
0001FFFFF400
0000FFFFF000
0000FFFE4000
00007F900000
000010000000
029000000290
1FF400000BF8
3FFC00001FFE
7FFE00003FFF
3FFF4000BFFE
2FFFC001FFFD
0FFFE003FFF8
07FFF40BFFF0
02FFF81FFFD0
00FFFD2FFF80
007FFFBFFF00
002FFFFFFD00
000FFFFFF800
0007FFFFF000
0002FFFFD000
0000FFFF8000
00007FFF0000
00003FFE0000
00003FFE0000
00003FFE0000
00003FFE0000
00003FFE0000
00003FFE0000
00003FFE0000
00003FFE0000
00002FFD0000
00001BF80000
ENDCHAR
STARTCHAR Thorn
ENCODING 222
SWIDTH 634 0
DWIDTH 23 0
BBX 21 27 1 0
BITMAP
054000000000
3FF400000000
7FF800000000
BFF800000000
BFFEAA900000
BFFFFFFE0000
BFFFFFFFD000
BFFFFFFFF400
BFFFFFFFFD00
BFFFFFFFFF00
BFFEAAFFFF40
BFF8002FFF80
BFF8000BFF80
BFF8000BFF80
BFF8000BFF80
BFF8000FFF80
BFF8006FFF40
BFFFFFFFFF00
BFFFFFFFFE00
BFFFFFFFFC00
BFFFFFFFF400
BFFFFFFF8000
BFFFFFF90000
BFFD55400000
BFF800000000
7FF800000000
2FE000000000
ENDCHAR
STARTCHAR germandbls
ENCODING 223
SWIDTH 633 0
DWIDTH 23 0
BBX 21 28 1 -1
BITMAP
001BFFE40000
02FFFFFF4000
0FFFFFFFC000
2FFFFFFFD000
3FFFFFFFE000
7FFF56FFE000
7FFC01FFE000
BFF803FFD000
BFF80BFF8000
BFF81FFF0000
BFF82FFD0000
BFF83FF80000
BFF83FFC0000
BFF82FFE0000
BFF81FFFD000
BFF80BFFF800
BFF802FFFE00
BFF8007FFF40
BFF8000BFF80
BFF80003FF80
BFF80403FFC0
BFF82F9BFF80
BFF87FFFFF80
BFF87FFFFF40
BFF8BFFFFF00
BFF87FFFFD00
7FF81BFFE000
2FF000000000
ENDCHAR
STARTCHAR agrave
ENCODING 224
SWIDTH 596 0
DWIDTH 21 0
BBX 19 28 1 0
BITMAP
000A400000
001FFE4000
003FFFF800
003FFFFD00
003FFFFD00
0006FFFD00
00001BF800
0000005000
0000000000
001AE81BE4
00BFFF7FF8
03FFFFFFFC
0FFFFFFFFC
2FFFFFFFFC
7FFFFFFFFC
BFFF5BFFFC
FFFC01FFFC
FFF400BFFC
FFF400BFFC
FFF400BFFC
FFFC01FFFC
BFFF9BFFFC
7FFFFFFFFC
2FFFFFFFFC
0FFFFFFFFC
03FFFFFFFC
00BFFF7FF8
001AE91BE4
ENDCHAR
STARTCHAR aacute
ENCODING 225
SWIDTH 596 0
DWIDTH 21 0
BBX 19 28 1 0
BITMAP
0000016800
00006FFD00
000BFFFE00
002FFFFF00
002FFFFE00
001FFFE400
000BF90000
0001400000
0000000000
001AE81BE4
00BFFF7FF8
03FFFFFFFC
0FFFFFFFFC
2FFFFFFFFC
7FFFFFFFFC
BFFF5BFFFC
FFFC01FFFC
FFF400BFFC
FFF400BFFC
FFF400BFFC
FFFC01FFFC
BFFF9BFFFC
7FFFFFFFFC
2FFFFFFFFC
0FFFFFFFFC
03FFFFFFFC
00BFFF7FF8
001AE91BE4
ENDCHAR
STARTCHAR acircumflex
ENCODING 226
SWIDTH 596 0
DWIDTH 21 0
BBX 19 28 1 0
BITMAP
00006A4000
001BFFF900
00BFFFFFD0
01FFFFFFF0
01FFFFFFE0
00BFE6FFD0
002E401F40
0000000000
0000000000
001AE81BE4
00BFFF7FF8
03FFFFFFFC
0FFFFFFFFC
2FFFFFFFFC
7FFFFFFFFC
BFFF5BFFFC
FFFC01FFFC
FFF400BFFC
FFF400BFFC
FFF400BFFC
FFFC01FFFC
BFFF9BFFFC
7FFFFFFFFC
2FFFFFFFFC
0FFFFFFFFC
03FFFFFFFC
00BFFF7FF8
001AE91BE4
ENDCHAR
STARTCHAR atilde
ENCODING 227
SWIDTH 596 0
DWIDTH 21 0
BBX 19 28 1 0
BITMAP
0006A40640
002FFE1FD0
00BFFFFFF0
01FFFFFFE0
01FFFFFFC0
00BE1FFF00
001801A400
0000000000
0000000000
001AE81BE4
00BFFF7FF8
03FFFFFFFC
0FFFFFFFFC
2FFFFFFFFC
7FFFFFFFFC
BFFF5BFFFC
FFFC01FFFC
FFF400BFFC
FFF400BFFC
FFF400BFFC
FFFC01FFFC
BFFF9BFFFC
7FFFFFFFFC
2FFFFFFFFC
0FFFFFFFFC
03FFFFFFFC
00BFFF7FF8
001AE91BE4
ENDCHAR
STARTCHAR adieresis
ENCODING 228
SWIDTH 596 0
DWIDTH 21 0
BBX 19 28 1 0
BITMAP
01AA001AA0
03FF807FF4
07FFC0BFF8
07FFC0BFF8
07FFC0BFF8
03FF807FF4
0069001A90
0000000000
0000000000
001AE81BE4
00BFFF7FF8
03FFFFFFFC
0FFFFFFFFC
2FFFFFFFFC
7FFFFFFFFC
BFFF5BFFFC
FFFC01FFFC
FFF400BFFC
FFF400BFFC
FFF400BFFC
FFFC01FFFC
BFFF9BFFFC
7FFFFFFFFC
2FFFFFFFFC
0FFFFFFFFC
03FFFFFFFC
00BFFF7FF8
001AE91BE4
ENDCHAR
STARTCHAR aring
ENCODING 229
SWIDTH 596 0
DWIDTH 21 0
BBX 19 27 1 0
BITMAP
00006F8000
0001FFE000
0002E0F400
0003C0B400
0002D0B400
0001FBF000
00007F8000
0000040000
001AE81BE4
00BFFF7FF8
03FFFFFFFC
0FFFFFFFFC
2FFFFFFFFC
7FFFFFFFFC
BFFF5BFFFC
FFFC01FFFC
FFF400BFFC
FFF400BFFC
FFF400BFFC
FFFC01FFFC
BFFF9BFFFC
7FFFFFFFFC
2FFFFFFFFC
0FFFFFFFFC
03FFFFFFFC
00BFFF7FF8
001AE91BE4
ENDCHAR
STARTCHAR ae
ENCODING 230
SWIDTH 910 0
DWIDTH 33 0
BBX 31 21 1 -1
BITMAP
0000500000000000
006FFF800AFFE400
07FFFFF4BFFFFE00
2FFFFFFFFFFFFFC0
7FFFFFFFFFFFFFE0
BFFFFFFFFFFFFFF4
7FFFAFFFFFD6FFF8
2FF803FFFE007FF8
0BD002FFFC007FF8
000001FFFEAAFFF8
02BFF9FFFFFFFFF4
2FFFFFFFFFFFFFE0
7FFFFFFFFD555540
FFF556FFFD000000
FFD000BFFF916F80
FFE007FFFFFFFFD0
FFFFFFFFFFFFFFE0
7FFFFFF7FFFFFFF0
2FFFFFD0BFFFFFD0
0BFFFE001BFFF900
0015400000140000
ENDCHAR
STARTCHAR ccedilla
ENCODING 231
SWIDTH 524 0
DWIDTH 19 0
BBX 17 27 1 -7
BITMAP
0000550000
001BFFE400
00BFFFFE00
07FFFFFF80
0FFFFFFFC0
2FFFFFFF80
7FFFFFFF40
BFFF56FD00
FFFC006400
FFF8000000
FFF8000000
FFF8000000
FFFD006400
BFFF96FD00
7FFFFFFF40
2FFFFFFF80
0FFFFFFFC0
07FFFFFF40
00BFFFFD00
001BFFE000
000BFF4000
0007FFC000
00025FD000
00025FD000
000BFFC000
000BFF4000
0001B90000
ENDCHAR
STARTCHAR egrave
ENCODING 232
SWIDTH 573 0
DWIDTH 21 0
BBX 19 29 1 -1
BITMAP
002A400000
007FF90000
00BFFFE000
00FFFFF800
00BFFFF800
001BFFF400
00006FF000
0000014000
0000550000
001BFFE400
01FFFFFE00
07FFFFFFC0
1FFFFFFFE0
2FFFFFFFF4
7FFF96FFF8
BFFE00BFF8
FFF800BFF8
FFFEAAFFF8
FFFFFFFFF4
FFFFFFFFE0
FFFEAAAA40
BFFC000000
7FFF405B40
3FFFFFFFD0
1FFFFFFFE0
07FFFFFFE0
01FFFFFFD0
002FFFFE40
0001555000
ENDCHAR
STARTCHAR eacute
ENCODING 233
SWIDTH 573 0
DWIDTH 21 0
BBX 19 29 1 -1
BITMAP
000001A400
00006FFC00
001BFFFD00
003FFFFE00
003FFFFD00
002FFFE400
000FF90000
0005400000
0000550000
001BFFE400
01FFFFFE00
07FFFFFFC0
1FFFFFFFE0
2FFFFFFFF4
7FFF96FFF8
BFFE00BFF8
FFF800BFF8
FFFEAAFFF8
FFFFFFFFF4
FFFFFFFFE0
FFFEAAAA40
BFFC000000
7FFF405B40
3FFFFFFFD0
1FFFFFFFE0
07FFFFFFE0
01FFFFFFD0
002FFFFE40
0001555000
ENDCHAR
STARTCHAR ecircumflex
ENCODING 234
SWIDTH 573 0
DWIDTH 21 0
BBX 19 29 1 -1
BITMAP
0001A90000
006FFFE400
03FFFFFF40
0BFFFFFF80
07FFFFFF80
03FF9BFF40
01B9007D00
0000000000
0000550000
001BFFE400
01FFFFFE00
07FFFFFFC0
1FFFFFFFE0
2FFFFFFFF4
7FFF96FFF8
BFFE00BFF8
FFF800BFF8
FFFEAAFFF8
FFFFFFFFF4
FFFFFFFFE0
FFFEAAAA40
BFFC000000
7FFF405B40
3FFFFFFFD0
1FFFFFFFE0
07FFFFFFE0
01FFFFFFD0
002FFFFE40
0001555000
ENDCHAR
STARTCHAR edieresis
ENCODING 235
SWIDTH 573 0
DWIDTH 21 0
BBX 19 29 1 -1
BITMAP
06A800AA40
1FFD02FFD0
2FFE03FFD0
2FFE03FFD0
2FFE03FFD0
1FFD02FFC0
06A4006900
0000000000
0000550000
001BFFE400
01FFFFFE00
07FFFFFFC0
1FFFFFFFE0
2FFFFFFFF4
7FFF96FFF8
BFFE00BFF8
FFF800BFF8
FFFEAAFFF8
FFFFFFFFF4
FFFFFFFFE0
FFFEAAAA40
BFFC000000
7FFF405B40
3FFFFFFFD0
1FFFFFFFE0
07FFFFFFE0
01FFFFFFD0
002FFFFE40
0001555000
ENDCHAR
STARTCHAR igrave
ENCODING 236
SWIDTH 255 0
DWIDTH 9 0
BBX 11 28 -2 0
BITMAP
1A4000
3FF900
7FFFE4
BFFFFC
7FFFFC
1BFFF8
006FF0
000150
000000
00BF80
01FFE0
02FFE0
02FFE0
02FFE0
02FFE0
02FFE0
02FFE0
02FFE0
02FFE0
02FFE0
02FFE0
02FFE0
02FFE0
02FFE0
02FFE0
02FFE0
01FFE0
00BF80
ENDCHAR
STARTCHAR iacute
ENCODING 237
SWIDTH 255 0
DWIDTH 9 0
BBX 11 28 0 0
BITMAP
0001A0
01AFF8
2FFFFC
7FFFFC
7FFFFC
3FFF90
2FE400
050000
000000
0BF800
1FFE00
2FFE00
2FFE00
2FFE00
2FFE00
2FFE00
2FFE00
2FFE00
2FFE00
2FFE00
2FFE00
2FFE00
2FFE00
2FFE00
2FFE00
2FFE00
1FFE00
0BF800
ENDCHAR
STARTCHAR icircumflex
ENCODING 238
SWIDTH 255 0
DWIDTH 9 0
BBX 15 28 -3 0
BITMAP
001A9000
06FFFE40
7FFFFFF4
BFFFFFF8
7FFFFFF8
3FF9BFF4
1B900BD0
00000000
00000000
002FE000
007FF800
00BFF800
00BFF800
00BFF800
00BFF800
00BFF800
00BFF800
00BFF800
00BFF800
00BFF800
00BFF800
00BFF800
00BFF800
00BFF800
00BFF800
00BFF800
007FF800
002FE000
ENDCHAR
STARTCHAR idieresis
ENCODING 239
SWIDTH 255 0
DWIDTH 9 0
BBX 17 28 -4 0
BITMAP
1AA002AA00
7FF807FF40
7FFC0BFF80
7FFC0BFF80
7FFC0BFF80
3FF807FF40
069001A900
0000000000
0000000000
000BF80000
001FFE0000
002FFE0000
002FFE0000
002FFE0000
002FFE0000
002FFE0000
002FFE0000
002FFE0000
002FFE0000
002FFE0000
002FFE0000
002FFE0000
002FFE0000
002FFE0000
002FFE0000
002FFE0000
001FFE0000
000BF80000
ENDCHAR
STARTCHAR eth
ENCODING 240
SWIDTH 585 0
DWIDTH 21 0
BBX 19 30 1 -1
BITMAP
0000074000
000A5FD000
002FFFC000
007FFF4000
007FFFC000
002FFFF400
000FFFFC00
002FEFFE00
002F47FF80
000901FFC0
0001647FE0
002FFFAFF0
01FFFFFFF4
0BFFFFFFF8
1FFFFFFFF8
3FFFFFFFFC
7FFF9BFFFC
BFF800BFFC
FFF4007FFC
FFF0003FFC
FFF4003FFC
FFF800BFFC
BFFE02FFF8
7FFFFFFFF4
2FFFFFFFE0
1FFFFFFFC0
07FFFFFF40
00BFFFFC00
001BFFD000
0000540000
ENDCHAR
STARTCHAR ntilde
ENCODING 241
SWIDTH 606 0
DWIDTH 22 0
BBX 20 28 1 0
BITMAP
001AA01A00
007FFD7F80
01FFFFFFD0
03FFFFFFC0
03FFFFFF40
02FC2FFD00
0060069000
0000000000
0000000000
2FE06FA000
7FFAFFFE00
BFFFFFFF80
BFFFFFFFD0
BFFFFFFFF0
BFFFFFFFF8
BFFF96FFFC
BFFD00BFFD
BFFC003FFD
BFF8003FFD
BFF8003FFD
BFF8003FFD
BFF8003FFD
BFF8003FFD
BFF8003FFD
BFF8003FFD
BFF8003FFD
7FF8002FFD
2FE0000BF4
ENDCHAR
STARTCHAR ograve
ENCODING 242
SWIDTH 600 0
DWIDTH 22 0
BBX 20 29 1 -1
BITMAP
001A400000
003FF90000
007FFFE400
00BFFFFC00
007FFFFC00
001BFFF800
00006BF400
0000005000
0000550000
001BFFE400
00BFFFFE00
07FFFFFF80
0FFFFFFFE0
2FFFFFFFF4
7FFFFFFFFC
BFFE41FFFD
FFF8007FFE
FFF4002FFE
FFF4002FFE
FFF4002FFE
FFF8007FFD
BFFF42FFFD
7FFFFFFFFC
2FFFFFFFF4
0FFFFFFFE0
03FFFFFF80
00BFFFFE00
001BFFE400
0000550000
ENDCHAR
STARTCHAR oacute
ENCODING 243
SWIDTH 600 0
DWIDTH 22 0
BBX 20 29 1 -1
BITMAP
000001A800
00006FFD00
000BFFFE00
002FFFFF00
002FFFFE00
001FFFE400
000FF90000
0001400000
0000550000
001BFFE400
00BFFFFE00
07FFFFFF80
0FFFFFFFE0
2FFFFFFFF4
7FFFFFFFFC
BFFE41FFFD
FFF8007FFE
FFF4002FFE
FFF4002FFE
FFF4002FFE
FFF8007FFD
BFFF42FFFD
7FFFFFFFFC
2FFFFFFFF4
0FFFFFFFE0
03FFFFFF80
00BFFFFE00
001BFFE400
0000550000
ENDCHAR
STARTCHAR ocircumflex
ENCODING 244
SWIDTH 600 0
DWIDTH 22 0
BBX 20 29 1 -1
BITMAP
0000690000
006FFFE400
02FFFFFF80
07FFFFFFC0
03FFFFFFC0
02FFD7FF40
00B9006E00
0000000000
0000550000
001BFFE400
00BFFFFE00
07FFFFFF80
0FFFFFFFE0
2FFFFFFFF4
7FFFFFFFFC
BFFE41FFFD
FFF8007FFE
FFF4002FFE
FFF4002FFE
FFF4002FFE
FFF8007FFD
BFFF42FFFD
7FFFFFFFFC
2FFFFFFFF4
0FFFFFFFE0
03FFFFFF80
00BFFFFE00
001BFFE400
0000550000
ENDCHAR
STARTCHAR otilde
ENCODING 245
SWIDTH 600 0
DWIDTH 22 0
BBX 20 29 1 -1
BITMAP
001A901900
00BFFD7F80
01FFFFFFC0
03FFFFFF80
07FFFFFF00
02F87FFD00
0060069000
0000000000
0000550000
001BFFE400
00BFFFFE00
07FFFFFF80
0FFFFFFFE0
2FFFFFFFF4
7FFFFFFFFC
BFFE41FFFD
FFF8007FFE
FFF4002FFE
FFF4002FFE
FFF4002FFE
FFF8007FFD
BFFF42FFFD
7FFFFFFFFC
2FFFFFFFF4
0FFFFFFFE0
03FFFFFF80
00BFFFFE00
001BFFE400
0000550000
ENDCHAR
STARTCHAR odieresis
ENCODING 246
SWIDTH 600 0
DWIDTH 22 0
BBX 20 29 1 -1
BITMAP
06A800AA80
0FFE01FFD0
1FFF02FFE0
1FFF02FFE0
1FFF02FFE0
0FFE01FFD0
01A4006A40
0000000000
0000550000
001BFFE400
00BFFFFE00
07FFFFFF80
0FFFFFFFE0
2FFFFFFFF4
7FFFFFFFFC
BFFE41FFFD
FFF8007FFE
FFF4002FFE
FFF4002FFE
FFF4002FFE
FFF8007FFD
BFFF42FFFD
7FFFFFFFFC
2FFFFFFFF4
0FFFFFFFE0
03FFFFFF80
00BFFFFE00
001BFFE400
0000550000
ENDCHAR
STARTCHAR divide
ENCODING 247
SWIDTH 503 0
DWIDTH 18 0
BBX 17 20 1 0
BITMAP
0006900000
002FF80000
002FFC0000
003FFC0000
002FFC0000
001FF40000
0001400000
1555555400
BFFFFFFF00
FFFFFFFF00
FFFFFFFF40
FFFFFFFF00
6AAAAAA900
0000000000
000BE40000
002FF80000
003FFC0000
003FFC0000
002FF80000
000BE40000
ENDCHAR
STARTCHAR oslash
ENCODING 248
SWIDTH 600 0
DWIDTH 22 0
BBX 20 31 1 -6
BITMAP
0000000900
0000002FE0
0000007FF8
000000BFF8
000001FFF4
000056FFF0
001BFFFFD0
00BFFFFFC0
07FFFFFF80
0FFFFFFFE0
2FFFFFFFF4
7FFFFFFFFC
BFFE41FFFD
FFF8007FFD
FFF4002FFE
FFF4002FFE
FFF4002FFE
FFF8007FFD
BFFE42FFFD
7FFFFFFFFC
2FFFFFFFF4
0FFFFFFFE0
07FFFFFF80
07FFFFFE00
0BFFFFE400
1FFF550000
2FFE000000
3FFD000000
3FFC000000
1FF4000000
0190000000
ENDCHAR
STARTCHAR ugrave
ENCODING 249
SWIDTH 606 0
DWIDTH 22 0
BBX 20 28 1 0
BITMAP
001A400000
003FF90000
007FFFE400
00BFFFFC00
007FFFFC00
001BFFF800
00006BF400
0000005000
0000000000
2FE0001BF8
7FF8002FFD
BFF8003FFD
BFF8003FFD
BFF8003FFD
BFF8003FFD
BFF8003FFD
BFF8003FFD
BFF8003FFD
BFF8003FFD
7FFC003FFD
7FFD00BFFD
3FFF96FFFD
2FFFFFFFFD
1FFFFFFFFD
0BFFFFFFFD
02FFFFFFFD
00BFFF6FFD
001AF81BF4
ENDCHAR
STARTCHAR uacute
ENCODING 250
SWIDTH 606 0
DWIDTH 22 0
BBX 20 28 1 0
BITMAP
0000006900
00001BFF00
0006FFFF40
000FFFFF40
000FFFFF40
000BFFF900
0007F94000
0001400000
0000000000
2FE0001BF8
7FF8002FFD
BFF8003FFD
BFF8003FFD
BFF8003FFD
BFF8003FFD
BFF8003FFD
BFF8003FFD
BFF8003FFD
BFF8003FFD
7FFC003FFD
7FFD00BFFD
3FFF96FFFD
2FFFFFFFFD
1FFFFFFFFD
0BFFFFFFFD
02FFFFFFFD
00BFFF6FFD
001AF81BF4
ENDCHAR
STARTCHAR ucircumflex
ENCODING 251
SWIDTH 606 0
DWIDTH 22 0
BBX 20 28 1 0
BITMAP
0000694000
001BFFF900
02FFFFFF80
03FFFFFFD0
03FFFFFFC0
01FFE7FF80
00B9006E00
0000000000
0000000000
2FE0001BF8
7FF8002FFD
BFF8003FFD
BFF8003FFD
BFF8003FFD
BFF8003FFD
BFF8003FFD
BFF8003FFD
BFF8003FFD
BFF8003FFD
7FFC003FFD
7FFD00BFFD
3FFF96FFFD
2FFFFFFFFD
1FFFFFFFFD
0BFFFFFFFD
02FFFFFFFD
00BFFF6FFD
001AF81BF4
ENDCHAR
STARTCHAR udieresis
ENCODING 252
SWIDTH 606 0
DWIDTH 22 0
BBX 20 28 1 0
BITMAP
06A9006A80
0FFF01FFE0
1FFF02FFF0
1FFF42FFF0
1FFF01FFF0
0FFE01FFE0
01A4005A40
0000000000
0000000000
2FE0001BF8
7FF8002FFD
BFF8003FFD
BFF8003FFD
BFF8003FFD
BFF8003FFD
BFF8003FFD
BFF8003FFD
BFF8003FFD
BFF8003FFD
7FFC003FFD
7FFD00BFFD
3FFF96FFFD
2FFFFFFFFD
1FFFFFFFFD
0BFFFFFFFD
02FFFFFFFD
00BFFF6FFD
001AF81BF4
ENDCHAR
STARTCHAR yacute
ENCODING 253
SWIDTH 604 0
DWIDTH 22 0
BBX 21 37 0 -9
BITMAP
0000001A4000
000006FF8000
0001FFFFC000
0007FFFFD000
0003FFFFD000
0003FFF90000
0001FE400000
000050000000
004000001000
0BF00001FE00
3FF80003FF80
7FFD0007FFC0
7FFF000BFFC0
2FFF801FFF80
0FFFC02FFF00
0BFFE07FFE00
03FFF4BFFD00
01FFFCFFF800
00BFFFFFF400
003FFFFFF000
002FFFFFD000
000FFFFFC000
0007FFFF8000
0002FFFF0000
0001FFFE0000
0000BFFD0000
0000FFF80000
0002FFF40000
0003FFF00000
0007FFD00000
000FFFC00000
001FFF800000
002FFF000000
003FFE000000
002FFD000000
000BF8000000
000050000000
ENDCHAR
STARTCHAR thorn
ENCODING 254
SWIDTH 580 0
DWIDTH 21 0
BBX 19 37 1 -8
BITMAP
0540000000
3FE0000000
7FF4000000
BFF4000000
BFF4000000
BFF4000000
BFF4000000
BFF4000000
BFF4000000
BFF4000000
BFF5BE9000
BFFBFFF800
BFFFFFFE00
BFFFFFFF80
BFFFFFFFE0
BFFFFFFFF0
BFFF9BFFF4
BFFD01FFF8
BFF800BFFC
BFF4007FFC
BFF800BFFC
BFFD01FFF8
BFFF9BFFF4
BFFFFFFFF0
BFFFFFFFE0
BFFFFFFF80
BFFFFFFE00
BFFBFFF800
BFF5BE9000
BFF4000000
BFF4000000
BFF4000000
BFF4000000
BFF4000000
BFF4000000
7FF0000000
2FE0000000
ENDCHAR
STARTCHAR ydieresis
ENCODING 255
SWIDTH 604 0
DWIDTH 22 0
BBX 21 37 0 -9
BITMAP
00AA401AA400
02FFD03FFC00
02FFE03FFD00
03FFE03FFD00
02FFE03FFD00
01FFD02FFC00
006940069000
000000000000
004000001000
0BF00001FE00
3FF80003FF80
7FFD0007FFC0
7FFF000BFFC0
2FFF801FFF80
0FFFC02FFF00
0BFFE07FFE00
03FFF4BFFD00
01FFFCFFF800
00BFFFFFF400
003FFFFFF000
002FFFFFD000
000FFFFFC000
0007FFFF8000
0002FFFF0000
0001FFFE0000
0000BFFD0000
0000FFF80000
0002FFF40000
0003FFF00000
0007FFD00000
000FFFC00000
001FFF800000
002FFF000000
003FFE000000
002FFD000000
000BF8000000
000050000000
ENDCHAR
STARTCHAR dotlessi
ENCODING 305
SWIDTH 255 0
DWIDTH 9 0
BBX 7 19 1 0
BITMAP
2FE0
7FF8
BFF8
BFF8
BFF8
BFF8
BFF8
BFF8
BFF8
BFF8
BFF8
BFF8
BFF8
BFF8
BFF8
BFF8
BFF8
7FF8
2FE0
ENDCHAR
STARTCHAR Lslash
ENCODING 321
SWIDTH 687 0
DWIDTH 25 0
BBX 23 27 1 0
BITMAP
000540000000
007FF0000000
00FFF4000000
00FFF4000000
00FFF4000000
00FFF4000000
00FFF4000000
00FFF4000000
00FFF4000000
00FFF5B80000
00FFFFFD0000
00FFFFFE0000
2BFFFFFE0000
FFFFFFF80000
FFFFF9000000
BFFFF4000000
7EFFF4000000
00FFF4000000
00FFF4000000
00FFF4000000
00FFF4000000
00FFF9555540
00FFFFFFFFF4
00FFFFFFFFF8
00FFFFFFFFF8
00BFFFFFFFF8
002FFFFFFFE4
ENDCHAR
STARTCHAR lslash
ENCODING 322
SWIDTH 468 0
DWIDTH 17 0
BBX 17 28 0 0
BITMAP
001BE40000
003FF80000
007FFC0000
007FFC0000
007FFC0000
007FFC0000
007FFC0000
007FFC0000
007FFC0000
007FFC0000
007FFD6D00
007FFFFF00
007FFFFF40
1BFFFFFF40
7FFFFFF900
7FFFFE4000
7FFFFC0000
2FBFFC0000
007FFC0000
007FFC0000
007FFC0000
007FFD0000
003FFFE000
003FFFF400
002FFFF800
001FFFF800
000BFFF400
0001BFE000
ENDCHAR
STARTCHAR OE
ENCODING 338
SWIDTH 1092 0
DWIDTH 39 0
BBX 38 27 1 0
BITMAP
00000555555555555500
0001BFFFFFFFFFFFFFC0
000BFFFFFFFFFFFFFFD0
007FFFFFFFFFFFFFFFD0
01FFFFFFFFFFFFFFFFD0
07FFFFFFFFFFFFFFFFC0
0FFFFFFFFFFFFFFFFF40
2FFFF4007FFC00000000
3FFF80007FFC00000000
7FFE00007FFC00000000
BFFC00007FFD55550000
FFF800007FFFFFFFC000
FFF400007FFFFFFFD000
FFF400007FFFFFFFD000
FFF400007FFFFFFFD000
FFF400007FFFFFFFD000
BFF800007FFFFFFF4000
BFFD00007FFC00000000
7FFF00007FFC00000000
2FFFD0007FFC00000000
1FFFF9557FFD55555500
0BFFFFFFFFFFFFFFFFC0
02FFFFFFFFFFFFFFFFD0
00BFFFFFFFFFFFFFFFD0
002FFFFFFFFFFFFFFFD0
0006FFFFFFFFFFFFFFC0
00006BFFFFFFFFFFFF40
ENDCHAR
STARTCHAR oe
ENCODING 339
SWIDTH 944 0
DWIDTH 34 0
BBX 32 21 1 -1
BITMAP
0000540000000000
001BFFE001BFF900
00BFFFFD1FFFFFD0
07FFFFFFFFFFFFF4
0FFFFFFFFFFFFFFC
2FFFFFFFFFFFFFFD
7FFFFFFFFFF97FFF
BFFE41FFFFC01FFF
FFF8007FFF401FFF
FFF4003FFFAABFFF
FFF4002FFFFFFFFE
FFF4003FFFFFFFF8
FFF8007FFF955550
BFFE41FFFF800000
7FFFFFFFFFE556E0
2FFFFFFFFFFFFFF8
0FFFFFFFFFFFFFFC
07FFFFFFFFFFFFFC
00BFFFFE2FFFFFF4
001BFFE402FFFE40
0000550000054000
ENDCHAR
STARTCHAR Scaron
ENCODING 352
SWIDTH 583 0
DWIDTH 21 0
BBX 19 36 1 -1
BITMAP
01F801BD00
03FF9BFF00
0BFFFFFF80
0BFFFFFF80
07FFFFFF40
006FFFE400
0001A90000
0000000000
0016AA4000
00BFFFF900
07FFFFFF40
0FFFFFFFD0
2FFFFFFFE0
3FFFFFFFD0
7FFE46FF80
BFFC007E00
BFF8000000
7FFD000000
7FFF940000
3FFFFFA400
1FFFFFFE40
0BFFFFFFD0
01BFFFFFF0
001BFFFFF8
00006BFFFC
000001FFFC
1F80007FFC
7FE0007FFC
FFFD00FFFC
FFFFABFFF8
BFFFFFFFF4
3FFFFFFFE0
1FFFFFFF80
02FFFFFE00
006FFFE000
0001540000
ENDCHAR
STARTCHAR scaron
ENCODING 353
SWIDTH 489 0
DWIDTH 18 0
BBX 16 29 1 -1
BITMAP
1A400680
3FF5BFF0
BFFFFFF4
BFFFFFF8
7FFFFFF4
06FFFE40
001B9000
00000000
00055000
01BFFF80
0BFFFFF4
2FFFFFF8
3FFFFFF8
7FFEAFF0
7FF40190
7FFD4000
3FFFF900
2FFFFFE0
1FFFFFF8
07FFFFFD
007FFFFE
0505BFFE
3FD01FFE
BFFEBFFE
FFFFFFFD
FFFFFFF8
6FFFFFF0
06FFFE40
00155000
ENDCHAR
STARTCHAR Ydieresis
ENCODING 376
SWIDTH 686 0
DWIDTH 25 0
BBX 24 35 0 0
BITMAP
002FE006FE00
00BFF40FFF40
00BFF80FFF40
00BFF80FFF40
00BFF80FFF40
007FF40BFF00
000540015400
000000000000
029000000290
1FF400000BF8
3FFC00001FFE
7FFE00003FFF
3FFF4000BFFE
2FFFC001FFFD
0FFFE003FFF8
07FFF40BFFF0
02FFF81FFFD0
00FFFD2FFF80
007FFFBFFF00
002FFFFFFD00
000FFFFFF800
0007FFFFF000
0002FFFFD000
0000FFFF8000
00007FFF0000
00003FFE0000
00003FFE0000
00003FFE0000
00003FFE0000
00003FFE0000
00003FFE0000
00003FFE0000
00003FFE0000
00002FFD0000
00001BF80000
ENDCHAR
STARTCHAR Zcaron
ENCODING 381
SWIDTH 643 0
DWIDTH 23 0
BBX 22 35 1 0
BITMAP
007E406F4000
00FFE6FFC000
01FFFFFFE000
02FFFFFFE000
01FFFFFFD000
001BFFF90000
00006A400000
000000000000
155555555400
BFFFFFFFFE00
FFFFFFFFFF40
FFFFFFFFFF80
FFFFFFFFFF80
BFFFFFFFFF40
6BFFFFFFFE00
000003FFF800
00000BFFF000
00001FFFD000
00007FFF8000
0000FFFF0000
0002FFFD0000
0007FFF40000
000FFFE00000
002FFFC00000
007FFF400000
01FFFE000000
03FFF8000000
0BFFF0000000
1FFFE0000000
3FFFFFFFFF40
BFFFFFFFFFC0
FFFFFFFFFFD0
FFFFFFFFFFD0
BFFFFFFFFFC0
2FFFFFFFFF40
ENDCHAR
STARTCHAR zcaron
ENCODING 382
SWIDTH 586 0
DWIDTH 21 0
BBX 20 28 1 0
BITMAP
00A8006900
02FF96FF40
03FFFFFFC0
07FFFFFFC0
03FFFFFF80
006FFFF900
0001BE4000
0000000000
0000000000
1FFFFFFF90
3FFFFFFFF4
7FFFFFFFF8
7FFFFFFFF8
7FFFFFFFF4
2FFFFFFFE0
0555BFFF80
0001FFFE00
0007FFF400
002FFFD000
00BFFF4000
02FFFD0000
0FFFF95540
3FFFFFFFF8
BFFFFFFFFC
FFFFFFFFFD
FFFFFFFFFC
BFFFFFFFFC
2FFFFFFFF4
ENDCHAR
STARTCHAR florin
ENCODING 402
SWIDTH 529 0
DWIDTH 19 0
BBX 19 35 0 -8
BITMAP
0000005A90
000002FFF4
00001FFFF4
00003FFFF4
0000BFFFF4
0001FFFFF0
0001FFF940
0002FFE000
0003FFD000
00ABFFEAA0
02FFFFFFF4
03FFFFFFF4
03FFFFFFF4
03FFFFFFF4
03FFFFFFE0
005BFF9540
000BFF8000
000BFF4000
000FFF4000
000FFF4000
000FFF0000
001FFF0000
001FFF0000
001FFE0000
002FFE0000
002FFE0000
002FFD0000
003FFD0000
007FFC0000
1FFFFC0000
7FFFF40000
BFFFF00000
FFFFD00000
FFFF400000
7FE8000000
ENDCHAR
STARTCHAR circumflex
ENCODING 710
SWIDTH 603 0
DWIDTH 22 0
BBX 15 7 3 21
BITMAP
001A9000
06FFFE40
2FFFFFF8
7FFFFFFC
3FFFFFFC
2FFDBFF4
0B9006E0
ENDCHAR
STARTCHAR caron
ENCODING 711
SWIDTH 600 0
DWIDTH 22 0
BBX 15 7 3 21
BITMAP
0A800690
2FF96FF4
3FFFFFF8
7FFFFFFC
3FFFFFF8
06FFFF90
001BE400
ENDCHAR
STARTCHAR dotaccent
ENCODING 729
SWIDTH 285 0
DWIDTH 10 0
BBX 7 7 2 25
BITMAP
1A90
BFF0
BFF4
FFF4
BFF4
BFF0
1A90
ENDCHAR
STARTCHAR ring
ENCODING 730
SWIDTH 378 0
DWIDTH 14 0
BBX 10 10 2 23
BITMAP
07F900
2FFF40
7E6FC0
BC07D0
B803D0
B807D0
7E5FC0
2FFF40
0BFD00
004000
ENDCHAR
STARTCHAR ogonek
ENCODING 731
SWIDTH 570 0
DWIDTH 21 0
BBX 8 8 6 -7
BITMAP
0BF4
2FFD
7FFC
BE64
BE64
7FFD
2FFD
07E4
ENDCHAR
STARTCHAR tilde
ENCODING 732
SWIDTH 584 0
DWIDTH 21 0
BBX 14 7 3 21
BITMAP
06A80680
1FFF5FE0
7FFFFFF0
FFFFFFE0
FFFFFFD0
BE0BFF40
1801A400
ENDCHAR
STARTCHAR endash
ENCODING 8211
SWIDTH 561 0
DWIDTH 20 0
BBX 20 6 0 7
BITMAP
1AAAAAAAA4
7FFFFFFFFD
7FFFFFFFFE
7FFFFFFFFE
7FFFFFFFFD
2FFFFFFFF8
ENDCHAR
STARTCHAR emdash
ENCODING 8212
SWIDTH 693 0
DWIDTH 25 0
BBX 25 6 0 7
BITMAP
1AAAAAAAAAA900
7FFFFFFFFFFF00
7FFFFFFFFFFF40
7FFFFFFFFFFF40
7FFFFFFFFFFF40
2FFFFFFFFFFE00
ENDCHAR
STARTCHAR quoteleft
ENCODING 8216
SWIDTH 237 0
DWIDTH 9 0
BBX 7 13 1 14
BITMAP
0010
02F4
0BF4
2FE0
3F80
7F40
BF90
FFF4
FFF8
FFF8
FFF8
FFF4
6FE0
ENDCHAR
STARTCHAR quoteright
ENCODING 8217
SWIDTH 237 0
DWIDTH 9 0
BBX 7 13 1 14
BITMAP
0540
7FF0
FFF4
FFF8
FFF8
FFF8
7FF4
0BF4
0FF0
1FD0
BFC0
FF00
F800
ENDCHAR
STARTCHAR quotesinglbase
ENCODING 8218
SWIDTH 237 0
DWIDTH 9 0
BBX 7 13 1 -6
BITMAP
1A90
BFF4
FFF8
FFF8
FFF8
FFF8
6FF4
0BF0
0FE0
2FD0
FF80
FE00
A400
ENDCHAR
STARTCHAR quotedblleft
ENCODING 8220
SWIDTH 482 0
DWIDTH 17 0
BBX 16 13 1 14
BITMAP
00100014
02F400BD
0BF403FD
2FE00BF4
3F801FD0
7F402FC0
BF903FE0
FFF43FFC
FFF87FFD
FFF87FFD
FFF87FFD
FFF43FFD
6FE01FF4
ENDCHAR
STARTCHAR quotedblright
ENCODING 8221
SWIDTH 482 0
DWIDTH 17 0
BBX 16 13 1 14
BITMAP
05400550
7FF02FF8
FFF43FFD
FFF87FFD
FFF87FFD
FFF83FFD
7FF42FFD
0BF403FC
0FF003F8
1FD00BF4
BFC02FE0
FF007F80
F8003E00
ENDCHAR
STARTCHAR quotedblbase
ENCODING 8222
SWIDTH 482 0
DWIDTH 17 0
BBX 16 13 1 -6
BITMAP
1A900AA0
BFF43FFC
FFF87FFD
FFF87FFD
FFF87FFD
FFF83FFD
6FF41FFC
0BF003FC
0FE007F8
2FD00BF0
FF803FD0
FE007F80
A4002900
ENDCHAR
STARTCHAR dagger
ENCODING 8224
SWIDTH 527 0
DWIDTH 19 0
BBX 19 34 0 -7
BITMAP
0002BA0000
0007FF4000
000BFF8000
000BFF8000
000BFF8000
000BFF8000
000BFF8000
000BFF8000
055BFF9540
3FFFFFFFF0
7FFFFFFFF4
7FFFFFFFF4
7FFFFFFFF4
2FFFFFFFF0
054BFF8540
000BFF8000
000BFF8000
000BFF8000
000BFF8000
000BFF8000
000BFF8000
000BFF8000
000BFF8000
000BFF8000
000BFF8000
000BFF8000
000BFF8000
000BFF8000
000BFF8000
000BFF8000
000BFF8000
000BFF8000
0007FF4000
0001A90000
ENDCHAR
STARTCHAR daggerdbl
ENCODING 8225
SWIDTH 527 0
DWIDTH 19 0
BBX 19 34 0 -7
BITMAP
0002BA0000
0007FF4000
000BFF8000
000BFF8000
000BFF8000
000BFF8000
000BFF8000
000BFF8000
055BFF9540
3FFFFFFFF0
7FFFFFFFF4
7FFFFFFFF4
7FFFFFFFF4
2FFFFFFFF0
054BFF8540
000BFF8000
000BFF8000
000BFF8000
000BFF8000
055BFF9540
3FFFFFFFF0
7FFFFFFFF4
7FFFFFFFF4
7FFFFFFFF4
3FFFFFFFF0
055BFF9540
000BFF8000
000BFF8000
000BFF8000
000BFF8000
000BFF8000
000BFF8000
0007FF4000
0001A90000
ENDCHAR
STARTCHAR bullet
ENCODING 8226
SWIDTH 342 0
DWIDTH 12 0
BBX 11 11 1 6
BITMAP
01A900
2FFF80
7FFFE0
BFFFF0
FFFFF4
FFFFF4
FFFFF4
FFFFF4
7FFFE0
2FFFD0
06FA00
ENDCHAR
STARTCHAR ellipsis
ENCODING 8230
SWIDTH 911 0
DWIDTH 33 0
BBX 31 7 1 0
BITMAP
1A90001A90001A90
BFF400BFF4007FF4
FFF800FFF800BFF8
FFF800FFF800FFFC
FFF800FFF800BFFC
FFF400BFF400BFF8
6FE0002FE0002FE0
ENDCHAR
STARTCHAR perthousand
ENCODING 8240
SWIDTH 1223 0
DWIDTH 44 0
BBX 42 29 1 -1
BITMAP
0000000001F40000000000
0055400003F80000000000
02FFE40007F40000000000
0FFFFC000FE00000000000
2FFFFE001FC00000000000
3FFFFF403F800000000000
7F80BF407F000000000000
BF407F80FE000000000000
BF407F82FC000000000000
7F80BF43F4000000000000
7FE6FF4BF0000000000000
3FFFFF0FD0000000000000
1FFFFD2FC0000000000000
07FFF87F40000000000000
01BF90BE00550000054000
000001FD0BFFD000BFF800
000002F82FFFF403FFFF00
000007F47FFFFC0BFFFF80
00000BE0FFFFFD0FFFFFC0
00001FD0FF42FE1FF03FD0
00003F81FE01FE1FD01FE0
00007F01FE00FE2FD01FE0
0000FE01FE01FE1FE02FE0
0001FC00FF97FE1FF57FD0
0003F800BFFFFD0FFFFFC0
000BF0007FFFF807FFFF80
000FD0001FFFF002FFFE00
001FC00006FF80006FE400
000B400000000000000000
ENDCHAR
STARTCHAR guilsinglleft
ENCODING 8249
SWIDTH 383 0
DWIDTH 14 0
BBX 14 19 0 0
BITMAP
00007D00
0001FF40
0007FFC0
001FFFD0
007FFF80
01FFFF00
07FFFC00
1FFFF000
7FFFC000
7FFF4000
7FFFC000
1FFFF000
0BFFFC00
01FFFF00
007FFF80
001FFFD0
0007FFC0
0001FF40
00007D00
ENDCHAR
STARTCHAR guilsinglright
ENCODING 8250
SWIDTH 383 0
DWIDTH 14 0
BBX 14 19 0 0
BITMAP
07D00000
1FF40000
7FFD0000
7FFF4000
3FFFD000
1FFFF400
07FFFD00
01FFFF40
007FFFC0
001FFFD0
007FFFC0
01FFFF40
07FFFD00
1FFFF400
3FFFD000
7FFF4000
7FFD0000
1FF40000
07D00000
ENDCHAR
STARTCHAR fraction
ENCODING 8260
SWIDTH 433 0
DWIDTH 16 0
BBX 18 29 1 -1
BITMAP
00000007D0
0000000FE0
0000001FC0
0000003F80
0000007F00
000000FE00
000002FC00
000003F400
00000BF000
00000FD000
00002FC000
00007F4000
0000BE0000
0001FD0000
0002F80000
0007F40000
000BE00000
001FD00000
003F800000
007F000000
00FE000000
01FC000000
03F8000000
0BF0000000
0FD0000000
2FC0000000
3F40000000
7F00000000
2D00000000
ENDCHAR
STARTCHAR Euro
ENCODING 8364
SWIDTH 612 0
DWIDTH 22 0
BBX 21 28 0 0
BITMAP
000001AAAA00
00006FFFFFC0
0002FFFFFFC0
000BFFFFFFC0
001FFFFFFFC0
003FFFFFFF80
007FFFAAA900
00BFFD000000
00FFF8000000
2AFFFEAAA400
7FFFFFFFFC00
7FFFFFFFFC00
3FFFFFFFF800
02FFE0000000
02FFE0000000
2FFFFAAAA400
7FFFFFFFFC00
7FFFFFFFFC00
3FFFFFFFF800
00FFF8000000
00BFFC000000
007FFF955400
003FFFFFFF80
001FFFFFFFC0
000BFFFFFFC0
0002FFFFFFC0
00007FFFFFC0
000006BFFE40
ENDCHAR
STARTCHAR trademark
ENCODING 8482
SWIDTH 840 0
DWIDTH 30 0
BBX 29 15 0 8
BITMAP
2AAAAA81A4002A00
7FFFFFD7FD00BF80
7FFFFFD7FF01FF80
7FFFFFD7FF83FF80
15BFE547FFDBFF80
007FD007FFFFFF80
007FD007FFFFFF80
007FD007FFFFFF80
007FD007FFFFFF80
007FD007FEFFBF80
007FD007FCBDBF80
007FD007FC00BF80
003FD007FC00BF80
003FC007FC007F80
0005400150001500
ENDCHAR
STARTCHAR minus
ENCODING 8722
SWIDTH 581 0
DWIDTH 21 0
BBX 19 6 1 7
BITMAP
6AAAAAAAA0
FFFFFFFFF8
FFFFFFFFFC
FFFFFFFFFC
FFFFFFFFFC
7FFFFFFFF4
ENDCHAR
STARTCHAR f_f
ENCODING 64256
SWIDTH 803 0
DWIDTH 29 0
BBX 29 28 0 0
BITMAP
00006FE0002BF400
0007FFF402FFFD00
001FFFF80BFFFD00
003FFFF81FFFFD00
00BFFFF83FFFFD00
00FFFFF47FFFFC00
00FFF9407FFE5000
00FFF4007FFC0000
00FFF4007FFC0000
2FFFFBFEFFFEF900
7FFFFFFFFFFFFF00
7FFFFFFFFFFFFF40
7FFFFFFFFFFFFF40
7FFFFFFFFFFFFF40
3FFFFFFFFFFFFE00
05FFF555BFFD5400
00FFF4007FFC0000
00FFF4007FFC0000
00FFF4007FFC0000
00FFF4007FFC0000
00FFF4007FFC0000
00FFF4007FFC0000
00FFF4007FFC0000
00FFF4007FFC0000
00FFF4007FFC0000
00FFF0007FFC0000
00FFF0007FF80000
006FD0002FE00000
ENDCHAR
STARTCHAR fi
ENCODING 64257
SWIDTH 709 0
DWIDTH 26 0
BBX 24 28 0 0
BITMAP
00006BE006A8
0007FFF40FFE
001FFFF81FFF
003FFFF81FFF
00BFFFF80FFF
00FFFFF40BFE
00FFF9400154
00FFF4000000
00FFF4000000
1AFFFBF806F9
3FFFFFFD0FFF
7FFFFFFE1FFF
7FFFFFFE1FFF
7FFFFFFE1FFF
3FFFFFFD1FFF
05FFF5501FFF
00FFF4001FFF
00FFF4001FFF
00FFF4001FFF
00FFF4001FFF
00FFF4001FFF
00FFF4001FFF
00FFF4001FFF
00FFF4001FFF
00FFF4001FFF
00FFF0001FFF
00FFF0000FFF
007FD00007F9
ENDCHAR
STARTCHAR fl
ENCODING 64258
SWIDTH 774 0
DWIDTH 28 0
BBX 28 28 0 0
BITMAP
00006BE006F800
0007FFF41FFE00
001FFFF81FFE00
003FFFF81FFE00
00BFFFF81FFE00
00FFFFF41FFE00
00FFF9401FFE00
00FFF4001FFE00
00FFF4001FFE00
1AFFFBF81FFE00
3FFFFFFD1FFE00
7FFFFFFE1FFE00
7FFFFFFE1FFE00
7FFFFFFE1FFE00
3FFFFFFD1FFE00
05FFF5501FFE00
00FFF4001FFE00
00FFF4001FFE00
00FFF4001FFE00
00FFF4001FFE00
00FFF4001FFF00
00FFF4001FFF00
00FFF4001FFFF8
00FFF4001FFFFD
00FFF4000FFFFD
00FFF0000BFFFD
00FFF00003FFFD
007FD000006FF8
ENDCHAR
STARTCHAR f_f_i
ENCODING 64259
SWIDTH 1059 0
DWIDTH 38 0
BBX 37 28 0 0
BITMAP
00006FE0002BF401A900
0007FFF402FFFD07FF40
001FFFF80BFFFD0BFF80
003FFFF81FFFFD0BFF80
00BFFFF83FFFFD0BFF80
00FFFFF47FFFFC07FF40
00FFF9407FFE5001A900
00FFF4007FFC00000000
00FFF4007FFC00000000
2FFFFBFEFFFEF901AA00
7FFFFFFFFFFFFF07FF40
7FFFFFFFFFFFFF4BFF80
7FFFFFFFFFFFFF4BFF80
7FFFFFFFFFFFFF4BFF80
3FFFFFFFFFFFFE0BFF80
05FFF555BFFD540BFF80
00FFF4007FFC000BFF80
00FFF4007FFC000BFF80
00FFF4007FFC000BFF80
00FFF4007FFC000BFF80
00FFF4007FFC000BFF80
00FFF4007FFC000BFF80
00FFF4007FFC000BFF80
00FFF4007FFC000BFF80
00FFF4007FFC000BFF80
00FFF0007FFC000BFF80
00FFF0007FF80007FF40
006FD0002FE00002FE00
ENDCHAR
STARTCHAR .notdef
ENCODING -1
SWIDTH 500 0
DWIDTH 18 0
BBX 1 1 0 0
BITMAP
00
ENDCHAR
STARTCHAR .null
ENCODING -1
SWIDTH 0 0
DWIDTH 0 0
BBX 1 1 0 0
BITMAP
00
ENDCHAR
STARTCHAR nonmarkingreturn
ENCODING -1
SWIDTH 333 0
DWIDTH 12 0
BBX 1 1 0 0
BITMAP
00
ENDCHAR
STARTCHAR f_t
ENCODING -1
SWIDTH 814 0
DWIDTH 29 0
BBX 29 28 0 0
BITMAP
00006FE000000000
0007FFF400000000
001FFFF805500000
003FFFF82FF80000
00BFFFF83FFC0000
00FFFFF43FFD0000
00FFF9403FFD0000
00FFF4003FFD0000
00FFF4003FFD0000
2FFFFBFEBFFFFE00
7FFFFFFFFFFFFF80
7FFFFFFFFFFFFF80
7FFFFFFFFFFFFF80
7FFFFFFFFFFFFF80
3FFFFFFFFFFFFF40
05FFF5557FFD5400
00FFF4003FFD0000
00FFF4003FFD0000
00FFF4003FFD0000
00FFF4003FFD0000
00FFF4003FFD0000
00FFF4003FFE0000
00FFF4002FFFF800
00FFF4002FFFFE00
00FFF4000FFFFE00
00FFF00007FFFE00
00FFF00001FFFE00
006FD000001BF800
ENDCHAR
STARTCHAR t_t
ENCODING -1
SWIDTH 794 0
DWIDTH 29 0
BBX 28 26 0 0
BITMAP
00154000054000
00BFE0007FF000
00FFF000BFF400
00FFF000BFF800
00FFF000BFF800
00FFF000BFF800
00FFF000BFF800
2FFFFFFFFFFEF9
7FFFFFFFFFFFFE
7FFFFFFFFFFFFF
7FFFFFFFFFFFFF
7FFFFFFFFFFFFF
3FFFFFFFFFFFFE
05FFF555BFF954
00FFF000BFF800
00FFF000BFF800
00FFF000BFF800
00FFF000BFF800
00FFF000BFF800
00FFF400BFF800
00FFFFE0BFFFE4
00BFFFF47FFFFC
007FFFF83FFFFC
002FFFF81FFFFC
000BFFF407FFFC
0001AFE0006FE4
ENDCHAR
STARTCHAR l_l
ENCODING -1
SWIDTH 626 0
DWIDTH 23 0
BBX 21 28 1 0
BITMAP
2FE002F90000
7FF40BFF4000
BFF80FFF4000
BFF80FFF4000
BFF80FFF4000
BFF80FFF4000
BFF80FFF4000
BFF80FFF4000
BFF80FFF4000
BFF80FFF4000
BFF80FFF4000
BFF80FFF4000
BFF80FFF4000
BFF80FFF4000
BFF80FFF4000
BFF80FFF4000
BFF80FFF4000
BFF80FFF4000
BFF80FFF4000
BFF80FFF4000
BFF80FFF4000
BFFD0BFF9400
7FFFCBFFFF40
7FFFD7FFFFC0
3FFFD3FFFFC0
2FFFD1FFFFC0
0BFFD07FFF80
01AF4006FE00
ENDCHAR
STARTCHAR j_j
ENCODING -1
SWIDTH 521 0
DWIDTH 19 0
BBX 23 37 -5 -9
BITMAP
0001A9001A40
0007FF40BFF0
000BFF80FFF4
000BFF80FFF4
000BFF80BFF4
0007FF40BFF0
000165001A40
000000000000
000000000000
0002BA002B90
0007FF40BFF0
000BFF80FFF4
000BFF80FFF4
000BFF80FFF4
000BFF80FFF4
000BFF80FFF4
000BFF80FFF4
000BFF80FFF4
000BFF80FFF4
000BFF80FFF4
000BFF80FFF4
000BFF80FFF4
000BFF80FFF4
000BFF80FFF4
000BFF80FFF4
000BFF80FFF4
000BFF80FFF4
000BFF80FFF4
000FFF40FFF4
002FFF40FFF0
2BFFFF1BFFF0
BFFFFD7FFFE0
BFFFF87FFFD0
BFFFF07FFF80
BFFF807FFF00
7FF9003FF800
054000054000
ENDCHAR
ENDFONT
